<svg width="813" height="424" viewBox="0 0 813 424" fill="none" xmlns="http://www.w3.org/2000/svg">
<path d="M427.602 419.064H420.804L423.07 278.117H425.336L427.602 419.064Z" fill="#E6E6E6"/>
<path d="M432.964 189.252L443.918 171.302C440.669 161.787 436.917 152.473 432.679 143.407L425.596 149.473L431.205 140.282C425.86 129.126 421.654 122.097 421.654 122.097C421.654 122.097 399.685 158.805 392.345 197.671L406.402 220.706L390.841 207.379C390.286 211.906 390.001 216.466 389.987 221.031C389.987 267.062 404.165 304.376 421.654 304.376C439.143 304.376 453.321 267.062 453.321 221.031C453.321 206.762 450.276 191.832 446.077 178.022L432.964 189.252Z" fill="#E6E6E6"/>
<path d="M255.448 419.064H248.651L250.917 278.117H253.182L255.448 419.064Z" fill="#E6E6E6"/>
<path d="M263.359 189.252L274.313 171.302C271.064 161.787 267.312 152.473 263.074 143.407L255.991 149.473L261.6 140.282C256.255 129.126 252.049 122.097 252.049 122.097C252.049 122.097 230.08 158.805 222.74 197.671L236.797 220.706L221.236 207.379C220.681 211.906 220.396 216.466 220.382 221.031C220.382 267.062 234.56 304.376 252.049 304.376C269.538 304.376 283.716 267.062 283.716 221.031C283.716 206.762 280.671 191.832 276.472 178.022L263.359 189.252Z" fill="#E6E6E6"/>
<path d="M339.922 418.628H326.328L330.859 128.727H335.391L339.922 418.628Z" fill="#E6E6E6"/>
<path d="M812.99 418.229H0V420.404H812.99V418.229Z" fill="#3F3D56"/>
<path d="M731.721 76.6935C732.06 76.6935 732.396 76.6226 732.71 76.485C733.023 76.3473 733.308 76.1456 733.548 75.8912C733.788 75.6369 733.978 75.3349 734.108 75.0026C734.237 74.6703 734.304 74.3141 734.304 73.9544V44.7378C734.308 44.2984 734.212 43.8646 734.023 43.4737C733.834 43.0827 733.558 42.7462 733.219 42.4933C732.88 42.2403 732.488 42.0784 732.077 42.0215C731.667 41.9646 731.249 42.0143 730.86 42.1665V9.13019C730.86 7.9312 730.637 6.74393 730.205 5.63621C729.772 4.52848 729.138 3.52197 728.338 2.67415C727.538 1.82634 726.589 1.15382 725.545 0.694987C724.5 0.236152 723.38 -1.27484e-06 722.249 0H440.682C439.551 -1.27484e-06 438.431 0.236152 437.387 0.694987C436.342 1.15382 435.393 1.82634 434.593 2.67415C433.794 3.52197 433.159 4.52848 432.727 5.63621C432.294 6.74393 432.071 7.9312 432.071 9.13019V409.945C432.071 412.366 432.978 414.689 434.593 416.401C436.208 418.113 438.398 419.075 440.682 419.075H722.249C724.533 419.075 726.723 418.113 728.338 416.401C729.953 414.689 730.86 412.366 730.86 409.945V117.611C731.249 117.764 731.667 117.813 732.077 117.756C732.488 117.7 732.88 117.538 733.219 117.285C733.558 117.032 733.833 116.695 734.023 116.304C734.212 115.913 734.308 115.48 734.304 115.04V85.8236C734.308 85.3842 734.212 84.9504 734.023 84.5594C733.833 84.1684 733.558 83.832 733.219 83.5791C732.88 83.3261 732.488 83.1642 732.077 83.1073C731.667 83.0503 731.249 83.1001 730.86 83.2523V76.5257C731.136 76.6336 731.427 76.6904 731.721 76.6935V76.6935Z" fill="#3F3D56"/>
<path d="M705.028 17.8037C706.159 17.8037 707.279 18.0399 708.323 18.4987C709.368 18.9575 710.317 19.63 711.117 20.4779C711.916 21.3257 712.551 22.3322 712.983 23.4399C713.416 24.5476 713.639 25.7349 713.639 26.9339V392.141C713.639 394.562 712.732 396.885 711.117 398.597C709.502 400.309 707.312 401.271 705.028 401.271H457.903C455.619 401.271 453.429 400.309 451.815 398.597C450.2 396.885 449.293 394.562 449.292 392.141V26.9339C449.292 24.5124 450.2 22.1901 451.814 20.4779C453.429 18.7657 455.619 17.8037 457.903 17.8037H705.028Z" fill="white"/>
<path d="M581.466 12.7822C583.368 12.7822 584.91 11.1471 584.91 9.13009C584.91 7.11311 583.368 5.47803 581.466 5.47803C579.564 5.47803 578.021 7.11311 578.021 9.13009C578.021 11.1471 579.564 12.7822 581.466 12.7822Z" fill="white"/>
<path d="M683.725 65.7119H472.083V88.0136H683.725V65.7119Z" fill="#F50057"/>
<path d="M683.725 118.245H472.083V126.692H683.725V118.245Z" fill="#E6E6E6"/>
<path d="M683.725 144.026H472.083V152.473H683.725V144.026Z" fill="#E6E6E6"/>
<path d="M581.438 170.135H472.083V178.582H581.438V170.135Z" fill="#E6E6E6"/>
<path d="M683.725 196.707H472.083V205.154H683.725V196.707Z" fill="#E6E6E6"/>
<path d="M683.725 223.279H472.083V231.725H683.725V223.279Z" fill="#E6E6E6"/>
<path d="M577.776 249.851H472.083V258.298H577.776V249.851Z" fill="#E6E6E6"/>
<path d="M683.725 276.423H472.083V284.869H683.725V276.423Z" fill="#E6E6E6"/>
<path d="M683.725 302.994H472.083V311.441H683.725V302.994Z" fill="#E6E6E6"/>
<path d="M683.977 335.586H617.144V358.885H683.977V335.586Z" fill="#F50057"/>
<path d="M245.313 148.201H243.807V95.0261C243.807 86.8287 240.736 78.967 235.27 73.1706C229.803 67.3741 222.389 64.1177 214.658 64.1177H107.836C104.008 64.1177 100.218 64.9172 96.6811 66.4705C93.1445 68.0237 89.9311 70.3005 87.2243 73.1706C84.5175 76.0407 82.3703 79.448 80.9054 83.198C79.4405 86.948 78.6865 90.9672 78.6865 95.0262V388.166C78.6865 392.225 79.4405 396.245 80.9054 399.995C82.3703 403.745 84.5175 407.152 87.2243 410.022C89.9311 412.892 93.1445 415.169 96.6811 416.722C100.218 418.276 104.008 419.075 107.836 419.075H214.658C222.389 419.075 229.803 415.819 235.27 410.022C240.736 404.226 243.807 396.364 243.807 388.167V185.985H245.313V148.201Z" fill="#3F3D56"/>
<path d="M237.282 92.9062V387.477C237.282 393.599 234.989 399.471 230.906 403.799C226.824 408.128 221.286 410.56 215.513 410.56H108.486C102.712 410.56 97.1751 408.128 93.0925 403.799C89.0099 399.471 86.7163 393.599 86.7163 387.477V92.9062C86.7163 87.3882 88.7836 82.0961 92.4634 78.1942C96.1433 74.2924 101.134 72.1003 106.338 72.1003H121.449C120.878 73.6137 120.624 75.2403 120.704 76.8679C120.784 78.4955 121.196 80.0853 121.912 81.5276C122.783 83.1203 124.017 84.4558 125.501 85.4121C126.985 86.3683 128.672 86.9146 130.406 87.0011H192.674C194.409 86.9146 196.096 86.3682 197.58 85.4119C199.064 84.4555 200.298 83.1198 201.169 81.5269C201.885 80.0847 202.297 78.4949 202.376 76.8675C202.456 75.24 202.202 73.6136 201.631 72.1004H217.66C222.865 72.1004 227.855 74.2924 231.535 78.1943C235.215 82.0961 237.282 87.3882 237.282 92.9062V92.9062Z" fill="white"/>
<path d="M361.298 12.9545C361.298 12.9545 349.943 8.65459 342.644 25.8541C335.344 43.0535 323.99 61.973 323.99 61.973L330.478 63.693C330.478 63.693 332.1 51.6533 336.155 49.9334L334.533 65.4129C334.533 65.4129 383.195 83.4724 405.094 63.693L404.282 57.6731C404.282 57.6731 407.527 58.5331 407.527 63.693L409.96 61.113C409.96 61.113 407.527 55.9532 400.227 49.0734C395.436 44.5578 393.79 35.9669 393.224 30.5957C392.8 26.1108 391.108 21.8663 388.369 18.4191C383.518 12.4581 374.68 6.12244 361.298 12.9545Z" fill="#2F2E41"/>
<path d="M294.612 160.501L305.23 174.83L311.987 166.641L306.196 156.406L294.612 160.501Z" fill="#FBBEBE"/>
<path d="M290.751 380.552L286.891 402.045L296.543 407.163L303.3 402.045V380.552H290.751Z" fill="#FBBEBE"/>
<path d="M358.318 380.552L362.18 402.045L352.527 407.163L345.77 402.045V380.552H358.318Z" fill="#FBBEBE"/>
<path d="M318.743 187.112L305.229 289.46L285.924 382.599L309.091 385.669L327.431 298.672L350.596 224.981L347.701 313.001L342.875 385.669H360.249L372.797 287.414L386.673 214.362L386.31 187.112H318.743Z" fill="#2F2E41"/>
<path d="M293.647 399.998C293.647 399.998 288.821 393.857 285.925 396.927C283.029 399.998 276.273 412.28 276.273 412.28C276.273 412.28 260.829 421.491 273.377 423.538C285.925 425.585 289.786 423.538 289.786 422.515C289.786 421.491 291.717 418.421 291.717 418.421L296.543 419.444L303.3 417.397C303.3 417.397 306.195 398.539 303.3 399.268C300.404 399.998 294.612 403.068 293.647 399.998Z" fill="#2F2E41"/>
<path d="M355.423 399.998C355.423 399.998 360.249 393.857 363.145 396.927C366.041 399.998 372.797 412.28 372.797 412.28C372.797 412.28 388.241 421.491 375.693 423.538C363.145 425.585 359.284 423.538 359.284 422.515C359.284 421.491 357.353 418.421 357.353 418.421L352.527 419.444L345.77 417.397C345.77 417.397 342.875 398.539 345.77 399.268C348.666 399.998 354.458 403.068 355.423 399.998Z" fill="#2F2E41"/>
<path d="M364.593 65.8276C375.254 65.8276 383.898 56.663 383.898 45.3578C383.898 34.0526 375.254 24.8879 364.593 24.8879C353.931 24.8879 345.288 34.0526 345.288 45.3578C345.288 56.663 353.931 65.8276 364.593 65.8276Z" fill="#FBBEBE"/>
<path d="M377.624 58.1514C377.624 58.1514 375.693 75.5507 376.658 79.6447C377.624 83.7387 379.554 89.8796 379.554 89.8796L348.666 83.7387C348.666 83.7387 357.353 64.2923 355.423 61.2219C353.492 58.1514 377.624 58.1514 377.624 58.1514Z" fill="#FBBEBE"/>
<path d="M380.519 82.7152L348.666 75.5508L330.326 194.276C338.593 191.882 347.354 192.24 355.423 195.299C368.936 200.417 387.276 195.299 387.276 195.299L383.415 83.7387L380.519 82.7152Z" fill="#F50057"/>
<path d="M355.154 66.1475L343.84 72.4802L329.361 75.5507L313.917 114.443L315.848 142.078C315.848 142.078 299.438 173.806 297.508 191.205C297.508 191.205 299.438 217.816 331.292 216.793L352.527 154.36C352.527 154.36 361.214 107.279 352.527 93.9735C352.527 93.9735 358.746 69.0262 355.154 66.1475Z" fill="#2F2E41"/>
<path d="M335.153 75.551L332.027 74.9856L329.361 75.551C329.361 75.551 322.604 76.5745 314.882 83.7389C307.16 90.9034 281.098 113.42 279.168 119.561C277.237 125.702 278.203 135.937 281.098 142.078C283.994 148.219 289.786 156.407 289.786 156.407L292.681 163.571L309.091 158.454C309.091 158.454 298.473 136.961 299.438 127.749L318.743 111.373L335.153 75.551Z" fill="#2F2E41"/>
<path d="M376.555 70.7749L391.137 89.8798L398.859 100.115L389.207 134.913L384.38 164.595C384.38 164.595 395.963 211.675 386.311 226.004C386.311 226.004 380.519 233.169 378.589 224.981C376.658 216.793 376.658 177.9 376.658 177.9C376.658 177.9 368.936 126.726 372.797 113.42C376.658 100.115 372.59 73.1634 376.555 70.7749Z" fill="#2F2E41"/>
<path d="M390.172 218.84V229.075C390.172 229.075 388.242 262.85 397.894 258.756C407.547 254.662 400.79 229.075 400.79 229.075L399.825 217.816L390.172 218.84Z" fill="#FBBEBE"/>
<path d="M343.073 46.449C350.415 40.8153 356.358 34.3263 360.289 26.6074C360.289 26.6074 373.762 42.4807 381.995 43.2744C390.229 44.068 382.744 24.2264 382.744 24.2264L367.774 20.2581L353.552 21.8454L342.325 29.7821L343.073 46.449Z" fill="#2F2E41"/>
<path d="M391.137 97.0439L398.859 100.114L399.825 110.349L403.686 172.783L401.755 219.864L387.277 220.887L382.45 168.689L380.52 111.373L391.137 97.0439Z" fill="#2F2E41"/>
<path d="M220.454 155.585H103.125V167.949H220.454V155.585Z" fill="#F50057"/>
<path d="M220.454 184.708H103.125V189.39H220.454V184.708Z" fill="#E6E6E6"/>
<path d="M220.454 199H103.125V203.683H220.454V199Z" fill="#E6E6E6"/>
<path d="M163.748 213.474H103.125V218.157H163.748V213.474Z" fill="#E6E6E6"/>
<path d="M220.454 228.205H103.125V232.888H220.454V228.205Z" fill="#E6E6E6"/>
<path d="M220.454 242.936H103.125V247.619H220.454V242.936Z" fill="#E6E6E6"/>
<path d="M161.718 257.667H103.125V262.349H161.718V257.667Z" fill="#E6E6E6"/>
<path d="M220.454 272.397H103.125V277.08H220.454V272.397Z" fill="#E6E6E6"/>
<path d="M220.454 287.128H103.125V291.811H220.454V287.128Z" fill="#E6E6E6"/>
<path d="M220.593 305.197H183.542V318.113H220.593V305.197Z" fill="#F50057"/>
</svg>
