<svg width="1232" height="991" viewBox="0 0 1232 991" fill="none" xmlns="http://www.w3.org/2000/svg">
<path d="M1101.54 484.537C1101.54 493.438 1101.3 502.276 1100.82 511.052C1099.07 543.864 1093.98 576.411 1085.62 608.187C1085.6 608.201 1085.6 608.201 1085.62 608.214C1084.52 612.417 1083.36 616.606 1082.13 620.756C1082.07 620.957 1082.02 621.144 1081.95 621.331C1080.13 627.555 1078.19 633.721 1076.12 639.829V639.843C1043.6 735.809 981.841 819.173 899.524 878.224C817.207 937.275 718.465 969.046 617.17 969.073C388.058 969.073 196.116 809.966 145.725 596.168C137.111 559.583 132.774 522.122 132.8 484.537C132.8 477.068 132.969 469.639 133.308 462.251C137.323 371.926 166.65 284.551 217.939 210.104C218.555 209.194 219.184 208.284 219.826 207.387C307.361 82.0099 452.698 0 617.17 0C849.614 0 1043.8 163.779 1090.72 382.275C1090.72 382.282 1090.73 382.292 1090.73 382.302C1093.75 396.383 1096.15 410.678 1097.93 425.188C1100.34 444.878 1101.55 464.698 1101.54 484.537V484.537Z" fill="#F2F2F2"/>
<path d="M1227.67 890.934C1224.05 904.017 1218.41 916.452 1210.93 927.783C1194.23 953.04 1170.34 972.355 1144.07 987.814C1142.25 988.899 1140.41 989.956 1138.56 991H1120.13L1119.49 989.528V989.514L1118.74 987.814L1118.65 987.614L1118.61 987.814L1117.87 991H1108.83C1108.08 989.943 1107.34 988.885 1106.62 987.814C1105.56 986.248 1104.55 984.669 1103.58 983.063C1101.88 980.253 1100.36 977.339 1099.03 974.336C1098.87 974.001 1098.74 973.666 1098.6 973.332L1099.21 972.676L1096.7 961.727L1101.74 960.897L1096.22 943.885C1096.42 943.256 1096.65 942.627 1096.89 941.997C1099.98 934.167 1105.79 928.318 1112.68 923.406C1119.77 918.333 1128.03 914.264 1135.61 910.034C1139.17 908.04 1142.68 905.938 1146.09 903.716V903.703C1150.45 900.879 1154.69 897.858 1158.79 894.641C1158.86 894.597 1158.93 894.548 1158.99 894.494C1159.05 894.454 1159.1 894.409 1159.15 894.36C1177.55 879.984 1193.11 862.315 1205.06 842.253C1205.06 842.253 1205.06 842.252 1205.06 842.252C1205.07 842.251 1205.07 842.25 1205.07 842.249C1205.07 842.248 1205.07 842.246 1205.07 842.244C1205.07 842.243 1205.07 842.241 1205.07 842.239C1205.47 841.597 1205.85 840.954 1206.22 840.298V840.285C1211.12 831.868 1215.33 823.073 1218.81 813.984V813.97C1219.08 813.301 1219.32 812.632 1219.58 811.962C1219.92 812.551 1220.26 813.14 1220.58 813.729C1220.58 813.729 1220.58 813.73 1220.59 813.73C1220.59 813.731 1220.59 813.732 1220.59 813.733C1220.59 813.734 1220.59 813.736 1220.59 813.737C1220.59 813.739 1220.59 813.741 1220.59 813.743C1233.57 836.965 1234.8 864.94 1227.67 890.934Z" fill="#00BFA6" fill-opacity="0.81"/>
<path d="M1220.59 813.743C1220.72 826.136 1219.43 838.504 1216.75 850.605C1215.55 856.142 1214.05 861.611 1212.26 866.988C1208.78 877.507 1204.24 887.644 1198.7 897.238C1198.4 897.76 1198.1 898.269 1197.78 898.777V898.791C1195.41 902.782 1192.85 906.651 1190.09 910.382C1185.91 916.326 1180.75 921.513 1174.83 925.721C1170 928.917 1164.53 931.031 1158.8 931.919C1157.73 932.119 1156.64 932.267 1155.52 932.401C1151.1 932.923 1146.52 933.123 1142.13 934.06C1139.91 934.5 1137.74 935.196 1135.68 936.135C1128.62 939.414 1124.64 946.281 1122.9 953.616C1122.6 954.901 1122.35 956.199 1122.17 957.497C1120.71 967.469 1122.31 977.829 1121.48 987.814C1121.39 988.872 1121.27 989.943 1121.12 991H1120.13L1119.49 989.528V989.514C1119.56 988.952 1119.61 988.39 1119.67 987.814C1119.99 982.909 1120.03 977.988 1119.79 973.078C1119.73 970.869 1119.69 968.647 1119.72 966.425C1119.75 964.645 1119.81 962.865 1119.95 961.098V961.085C1120.04 959.987 1120.15 958.903 1120.29 957.819C1120.72 954.499 1121.54 951.241 1122.73 948.115C1123.89 944.893 1125.73 941.953 1128.11 939.49C1130.49 937.026 1133.36 935.094 1136.54 933.819C1138.48 933.091 1140.48 932.531 1142.52 932.146C1147 931.29 1151.63 931.076 1156.14 930.513C1156.62 930.46 1157.1 930.393 1157.57 930.313C1158.17 930.219 1158.76 930.112 1159.35 930.005C1165.25 928.957 1170.82 926.541 1175.62 922.951C1181.32 918.435 1186.28 913.051 1190.31 906.996C1192.51 903.85 1194.6 900.638 1196.54 897.332C1196.54 897.33 1196.54 897.328 1196.54 897.327C1196.54 897.325 1196.54 897.324 1196.54 897.322C1196.54 897.321 1196.54 897.32 1196.54 897.319C1196.55 897.319 1196.55 897.318 1196.55 897.318C1196.64 897.158 1196.74 897.011 1196.83 896.85L1196.84 896.823C1205.17 882.596 1211.24 867.169 1214.85 851.087C1214.97 850.498 1215.11 849.909 1215.24 849.32C1217.72 837.708 1218.92 825.858 1218.81 813.983V813.97C1218.81 813.408 1218.8 812.859 1218.79 812.297C1218.76 811.146 1220.54 810.892 1220.57 812.043C1220.58 812.605 1220.59 813.167 1220.58 813.729C1220.58 813.729 1220.58 813.729 1220.59 813.73C1220.59 813.731 1220.59 813.732 1220.59 813.733C1220.59 813.734 1220.59 813.736 1220.59 813.737C1220.59 813.739 1220.59 813.741 1220.59 813.743V813.743Z" fill="white"/>
<path d="M1197.02 898.415C1202.11 901.005 1207.97 901.698 1213.53 900.371C1219.09 899.043 1224 895.78 1227.38 891.166C1228.06 890.229 1226.64 889.127 1225.96 890.065C1222.82 894.368 1218.25 897.406 1213.06 898.632C1207.88 899.858 1202.43 899.191 1197.7 896.75C1196.67 896.221 1195.99 897.888 1197.02 898.415V898.415Z" fill="white"/>
<path d="M1159.52 930.538C1155.8 919.454 1156.38 907.372 1161.17 896.702C1161.64 895.645 1159.98 894.963 1159.5 896.019C1154.55 907.132 1153.96 919.706 1157.86 931.232C1158.24 932.33 1159.89 931.63 1159.52 930.538V930.538Z" fill="white"/>
<path d="M1215.76 849.484C1213.58 848.893 1211.58 847.769 1209.94 846.213C1208.3 844.657 1207.07 842.719 1206.36 840.571C1206 839.468 1204.35 840.17 1204.7 841.265C1205.49 843.634 1206.85 845.774 1208.66 847.497C1210.47 849.22 1212.67 850.474 1215.08 851.149C1215.3 851.231 1215.54 851.226 1215.76 851.135C1215.98 851.044 1216.15 850.873 1216.25 850.658C1216.34 850.437 1216.34 850.19 1216.25 849.97C1216.15 849.75 1215.98 849.576 1215.76 849.484V849.484Z" fill="white"/>
<path d="M1146.09 903.703V903.717C1145.68 913.275 1144.48 922.783 1142.52 932.146V932.16C1142.41 932.802 1142.26 933.431 1142.13 934.06C1138.9 948.542 1134.37 962.702 1128.6 976.37C1127.01 980.225 1125.34 984.04 1123.6 987.814C1123.12 988.885 1122.62 989.943 1122.11 991H1120.13L1119.49 989.528V989.514L1118.74 987.814L1118.65 987.614L1118.61 987.814L1117.87 991H1098.74L1095.02 987.814L1089.6 983.17L1097.17 974.898L1098.42 973.533L1098.6 973.332L1099.21 972.676L1096.7 961.727L1101.74 960.897L1096.22 943.885L1093.61 935.841L1092.96 933.819L1089.14 922.054L1077.64 924.209L1075.76 917.65C1079.21 909.653 1082.08 901.418 1084.35 893.009C1084.37 892.942 1084.39 892.888 1084.41 892.821C1090.49 870.171 1092.31 846.589 1089.79 823.273V823.26C1089.71 822.51 1089.61 821.747 1089.51 821.011V820.984C1088.36 811.321 1086.43 801.769 1083.73 792.42C1083.54 791.711 1083.32 791.015 1083.12 790.319C1083.74 790.587 1084.34 790.841 1084.96 791.109L1084.97 791.122H1085C1085.97 791.55 1086.95 792.006 1087.9 792.487C1110.73 803.584 1127.52 824.411 1137.06 848.423C1137.09 848.49 1137.11 848.544 1137.14 848.611C1142.12 861.199 1145.08 874.492 1145.93 888.003C1146.25 893.23 1146.31 898.47 1146.09 903.703V903.703Z" fill="#01A892"/>
<path d="M1082.68 791.067C1083.03 791.508 1083.39 791.964 1083.72 792.419C1086.33 795.805 1088.8 799.299 1091.12 802.899C1095.26 809.252 1098.94 815.895 1102.12 822.776C1102.37 823.311 1102.63 823.86 1102.87 824.409C1109.68 839.445 1114.13 855.447 1116.04 871.845C1116.06 872.006 1116.08 872.153 1116.09 872.314C1116.53 876.142 1116.82 879.983 1116.95 883.838C1117.37 891.097 1116.65 898.379 1114.82 905.415C1114.55 906.338 1114.26 907.249 1113.94 908.132C1113.13 910.297 1112.12 912.381 1110.93 914.356C1110.06 915.797 1109.11 917.179 1108.06 918.492C1107.43 919.295 1106.78 920.085 1106.08 920.848C1105.68 921.289 1105.27 921.731 1104.85 922.173C1104.5 922.507 1104.17 922.855 1103.82 923.19C1100.21 926.697 1096.22 929.949 1092.96 933.818L1093.61 935.839C1096.76 931.85 1100.81 928.544 1104.46 925.064C1106.76 922.907 1108.84 920.541 1110.7 917.997C1110.94 917.649 1111.19 917.301 1111.42 916.939C1112.66 915.127 1113.73 913.205 1114.62 911.197C1115.07 910.193 1115.49 909.163 1115.86 908.092C1118.05 901.171 1119.04 893.93 1118.81 886.676C1118.76 882.029 1118.49 877.388 1117.98 872.769C1117.92 872.167 1117.86 871.578 1117.78 870.975C1116.42 859.981 1113.94 849.155 1110.39 838.664C1105.89 825.355 1099.7 812.678 1091.98 800.945C1089.77 797.585 1087.43 794.306 1084.95 791.107C1084.63 790.665 1084.3 790.237 1083.95 789.795C1083.24 788.885 1081.97 790.157 1082.68 791.067Z" fill="white"/>
<path d="M1117.14 872.938C1122.77 871.936 1127.86 868.964 1131.5 864.554C1135.14 860.143 1137.1 854.581 1137.02 848.861C1137.02 848.628 1136.92 848.406 1136.75 848.242C1136.59 848.078 1136.37 847.985 1136.13 847.982C1135.9 847.979 1135.67 848.067 1135.5 848.227C1135.33 848.387 1135.23 848.606 1135.22 848.839C1135.31 854.166 1133.48 859.346 1130.08 863.446C1126.68 867.546 1121.93 870.296 1116.68 871.198C1115.54 871.395 1116.01 873.134 1117.14 872.938V872.938Z" fill="white"/>
<path d="M1106.54 921.168C1096.89 914.561 1090.09 904.561 1087.49 893.16C1087.23 892.031 1085.49 892.489 1085.75 893.617C1088.48 905.476 1095.58 915.869 1105.63 922.721C1106.59 923.374 1107.49 921.816 1106.54 921.168H1106.54Z" fill="white"/>
<path d="M1102.65 822.582C1100.56 823.424 1098.28 823.731 1096.04 823.477C1093.79 823.222 1091.64 822.414 1089.79 821.124C1088.84 820.46 1087.94 822.017 1088.88 822.677C1090.94 824.093 1093.31 824.983 1095.79 825.27C1098.27 825.556 1100.79 825.231 1103.11 824.322C1103.34 824.254 1103.53 824.103 1103.65 823.899C1103.77 823.695 1103.81 823.454 1103.75 823.223C1103.69 822.993 1103.54 822.797 1103.34 822.676C1103.13 822.556 1102.88 822.522 1102.65 822.582V822.582Z" fill="white"/>
<path d="M847.403 210.11H1.32906C0.973908 210.102 0.635926 209.955 0.387512 209.701C0.139098 209.447 0 209.106 0 208.751C0 208.395 0.139098 208.054 0.387512 207.8C0.635926 207.546 0.973908 207.4 1.32906 207.392H847.403C847.758 207.4 848.096 207.546 848.344 207.8C848.593 208.054 848.732 208.395 848.732 208.751C848.732 209.106 848.593 209.447 848.344 209.701C848.096 209.955 847.758 210.102 847.403 210.11V210.11Z" fill="#CACACA"/>
<path d="M31.2411 191.083C39.3147 191.083 45.8596 184.39 45.8596 176.134C45.8596 167.877 39.3147 161.184 31.2411 161.184C23.1675 161.184 16.6226 167.877 16.6226 176.134C16.6226 184.39 23.1675 191.083 31.2411 191.083Z" fill="#F50057"/>
<path d="M81.7416 191.083C89.8152 191.083 96.3601 184.39 96.3601 176.134C96.3601 167.877 89.8152 161.184 81.7416 161.184C73.668 161.184 67.123 167.877 67.123 176.134C67.123 184.39 73.668 191.083 81.7416 191.083Z" fill="#00BFA6"/>
<path d="M132.242 191.083C140.315 191.083 146.86 184.39 146.86 176.134C146.86 167.877 140.315 161.184 132.242 161.184C124.168 161.184 117.623 167.877 117.623 176.134C117.623 184.39 124.168 191.083 132.242 191.083Z" fill="#F9A826"/>
<path d="M817.14 164.89H781.267C780.556 164.904 779.879 165.196 779.381 165.704C778.883 166.212 778.604 166.895 778.604 167.607C778.604 168.318 778.883 169.001 779.381 169.509C779.879 170.017 780.556 170.31 781.267 170.324H817.14C817.851 170.31 818.528 170.017 819.026 169.509C819.524 169.001 819.803 168.318 819.803 167.607C819.803 166.895 819.524 166.212 819.026 165.704C818.528 165.196 817.851 164.904 817.14 164.89V164.89Z" fill="#3F3D56"/>
<path d="M817.14 175.089H781.267C780.556 175.103 779.879 175.396 779.381 175.904C778.883 176.412 778.604 177.095 778.604 177.806C778.604 178.518 778.883 179.201 779.381 179.709C779.879 180.217 780.556 180.509 781.267 180.523H817.14C817.851 180.509 818.528 180.217 819.026 179.709C819.524 179.201 819.803 178.518 819.803 177.806C819.803 177.095 819.524 176.412 819.026 175.904C818.528 175.396 817.851 175.103 817.14 175.089Z" fill="#3F3D56"/>
<path d="M817.14 185.275H781.267C780.556 185.289 779.879 185.582 779.381 186.09C778.883 186.598 778.604 187.281 778.604 187.992C778.604 188.704 778.883 189.387 779.381 189.895C779.879 190.403 780.556 190.695 781.267 190.709H817.14C817.851 190.695 818.528 190.403 819.026 189.895C819.524 189.387 819.803 188.704 819.803 187.992C819.803 187.281 819.524 186.598 819.026 186.09C818.528 185.582 817.851 185.289 817.14 185.275V185.275Z" fill="#3F3D56"/>
<path d="M222.997 265.491H185.01C163.586 307.684 148.505 352.81 140.253 399.408H222.997C225.634 399.413 228.246 398.896 230.683 397.889C233.121 396.882 235.335 395.403 237.2 393.538C239.064 391.672 240.542 389.457 241.549 387.019C242.556 384.581 243.072 381.969 243.068 379.331V285.555C243.061 280.234 240.944 275.132 237.181 271.371C233.418 267.609 228.317 265.495 222.997 265.491Z" fill="#CCCCCC"/>
<path d="M504.4 265.491H332.288C326.969 265.495 321.868 267.609 318.105 271.371C314.342 275.133 312.225 280.234 312.218 285.555V379.331C312.224 384.654 314.341 389.757 318.103 393.52C321.866 397.284 326.967 399.402 332.288 399.408H504.4C509.721 399.402 514.823 397.284 518.585 393.52C522.348 389.757 524.464 384.654 524.471 379.331V285.555C524.464 280.234 522.347 275.133 518.584 271.371C514.821 267.609 509.72 265.495 504.4 265.491V265.491Z" fill="#CCCCCC"/>
<path d="M785.803 265.491H613.691C608.372 265.495 603.271 267.609 599.508 271.371C595.745 275.133 593.628 280.234 593.621 285.555V379.331C593.627 384.654 595.744 389.757 599.506 393.52C603.269 397.284 608.37 399.402 613.691 399.408H785.803C791.124 399.402 796.226 397.284 799.988 393.52C803.751 389.757 805.867 384.654 805.874 379.331V285.555C805.867 280.234 803.75 275.133 799.987 271.371C796.224 267.609 791.123 265.495 785.803 265.491V265.491Z" fill="#CCCCCC"/>
<path d="M222.997 462.251H133.308C132.974 469.639 132.804 477.068 132.8 484.537C132.774 522.122 137.111 559.583 145.725 596.167H222.997C228.318 596.161 233.419 594.044 237.182 590.28C240.945 586.516 243.061 581.413 243.068 576.09V482.315C243.061 476.993 240.943 471.892 237.181 468.13C233.418 464.369 228.317 462.254 222.997 462.251V462.251Z" fill="#CCCCCC"/>
<path d="M504.4 462.251H332.288C326.969 462.254 321.868 464.369 318.105 468.13C314.342 471.892 312.225 476.993 312.218 482.315V576.09C312.224 581.413 314.341 586.516 318.103 590.28C321.866 594.044 326.967 596.161 332.288 596.167H504.4C509.721 596.161 514.823 594.044 518.585 590.28C522.348 586.516 524.464 581.413 524.471 576.09V482.315C524.464 476.993 522.347 471.892 518.584 468.13C514.821 464.369 509.72 462.254 504.4 462.251V462.251Z" fill="#CCCCCC"/>
<path d="M785.803 462.251H613.691C608.372 462.254 603.271 464.369 599.508 468.13C595.745 471.892 593.628 476.993 593.621 482.315V576.09C593.627 581.413 595.744 586.516 599.506 590.28C603.269 594.044 608.37 596.161 613.691 596.167H785.803C786.352 596.167 786.9 596.141 787.449 596.087C789.599 595.929 791.707 595.409 793.684 594.548C797.269 593.014 800.33 590.469 802.494 587.225C804.658 583.981 805.833 580.177 805.874 576.277V482.315C805.867 476.993 803.75 471.892 799.987 468.13C796.224 464.369 791.123 462.254 785.803 462.251V462.251Z" fill="#CCCCCC"/>
<path d="M226.589 421.804C248.581 421.804 266.408 403.971 266.408 381.972C266.408 359.973 248.581 342.139 226.589 342.139C204.598 342.139 186.771 359.973 186.771 381.972C186.771 403.971 204.598 421.804 226.589 421.804Z" fill="#00BFA6"/>
<path d="M221.157 402.703C220.47 402.703 219.792 402.543 219.177 402.235C218.562 401.927 218.027 401.48 217.614 400.93L206.751 386.441C206.402 385.975 206.148 385.445 206.004 384.882C205.859 384.318 205.827 383.732 205.91 383.156C205.992 382.58 206.187 382.025 206.483 381.525C206.78 381.024 207.172 380.587 207.637 380.238C208.102 379.888 208.632 379.635 209.195 379.49C209.759 379.346 210.345 379.314 210.921 379.396C211.497 379.478 212.051 379.673 212.551 379.97C213.052 380.266 213.489 380.658 213.838 381.124L220.945 390.603L239.199 363.213C239.521 362.728 239.936 362.312 240.419 361.987C240.902 361.663 241.445 361.437 242.016 361.322C242.586 361.208 243.174 361.207 243.745 361.32C244.316 361.433 244.86 361.657 245.344 361.98C245.828 362.303 246.244 362.718 246.568 363.202C246.892 363.686 247.117 364.229 247.231 364.8C247.345 365.371 247.345 365.959 247.231 366.53C247.118 367.101 246.893 367.645 246.57 368.129L224.843 400.73C224.45 401.319 223.921 401.806 223.302 402.149C222.682 402.492 221.989 402.681 221.281 402.701C221.239 402.702 221.198 402.703 221.157 402.703Z" fill="white"/>
<path d="M516.944 425.82C538.935 425.82 556.763 407.986 556.763 385.987C556.763 363.988 538.935 346.155 516.944 346.155C494.953 346.155 477.125 363.988 477.125 385.987C477.125 407.986 494.953 425.82 516.944 425.82Z" fill="#00BFA6"/>
<path d="M511.512 406.718C510.824 406.718 510.146 406.558 509.531 406.25C508.916 405.943 508.381 405.496 507.969 404.946L497.105 390.456C496.757 389.991 496.503 389.461 496.358 388.897C496.214 388.334 496.182 387.747 496.264 387.171C496.347 386.595 496.541 386.041 496.838 385.54C497.134 385.04 497.526 384.602 497.992 384.253C498.457 383.904 498.986 383.65 499.55 383.506C500.113 383.361 500.7 383.329 501.275 383.412C501.851 383.494 502.405 383.689 502.906 383.985C503.406 384.282 503.843 384.674 504.192 385.139L511.299 394.618L529.553 367.229C530.205 366.252 531.218 365.575 532.37 365.345C533.521 365.116 534.716 365.352 535.693 366.004C536.669 366.655 537.348 367.668 537.579 368.819C537.81 369.97 537.574 371.166 536.924 372.144L515.198 404.745C514.805 405.335 514.276 405.821 513.656 406.165C513.036 406.508 512.343 406.697 511.635 406.717C511.594 406.718 511.553 406.718 511.512 406.718Z" fill="white"/>
<path d="M1085.57 600.632L1073.1 479.948L1069.81 430.278L1104.7 423.968C1104.7 423.968 1109.92 458.113 1114.49 478.151C1119 497.925 1108.48 597.982 1108.2 600.621C1110.77 602.913 1112.57 605.928 1113.38 609.269C1114.2 612.61 1113.97 616.119 1112.75 619.331C1111.52 622.543 1109.35 625.308 1106.52 627.258C1103.69 629.209 1100.34 630.254 1096.9 630.256C1093.46 630.258 1090.11 629.216 1087.27 627.268C1084.44 625.319 1082.27 622.557 1081.04 619.346C1079.81 616.135 1079.59 612.627 1080.39 609.285C1081.2 605.943 1083.01 602.926 1085.57 600.632V600.632Z" fill="#A0616A"/>
<path d="M996.281 959.87L978.981 963.826L955.493 898.955L981.026 893.115L996.281 959.87Z" fill="#A0616A"/>
<path d="M1099.42 971.186H1081.67L1073.23 902.708L1099.42 902.709L1099.42 971.186Z" fill="#A0616A"/>
<path d="M1072.43 604.69L1087.35 746.545C1087.35 746.545 1107.23 888.582 1103.49 908.181C1099.76 927.779 1104.43 930.579 1104.43 930.579L1070.38 928.153C1070.38 928.153 1071.31 916.02 1065.71 910.421C1060.11 904.822 1062.91 888.023 1062.91 888.023L996.86 656.952L956.743 778.275C956.743 778.275 982.086 876.662 981.154 878.528C980.221 880.395 997.21 921.36 997.21 921.36L959.199 933.97C959.199 933.97 963.863 919.038 957.333 914.371C950.802 909.705 945.205 913.438 950.802 905.039C956.4 896.639 906.699 834.954 907.792 795.2C908.121 783.241 908.518 770.41 908.996 757.264C911.523 687.698 916.296 609.312 925.023 604.69C940.883 596.29 1072.43 604.69 1072.43 604.69Z" fill="#2F2E41"/>
<path d="M1001.74 317.469C1022.01 317.469 1038.45 301.026 1038.45 280.743C1038.45 260.459 1022.01 244.016 1001.74 244.016C981.46 244.016 965.022 260.459 965.022 280.743C965.022 301.026 981.46 317.469 1001.74 317.469Z" fill="#A0616A"/>
<path d="M1124.32 505.087L1074.47 517.746L1074.82 503.749L1071.03 499.733L1063.47 460.117L1055.45 357.552L1082.99 372.168L1083.03 372.194C1087.84 377.488 1091.86 383.447 1094.97 389.889C1105.36 411.008 1115.34 457.527 1120.56 484.546C1120.74 485.113 1121.08 485.612 1121.55 485.979C1124.14 488.358 1125.83 491.558 1126.34 495.039C1126.84 498.521 1126.13 502.07 1124.32 505.087V505.087Z" fill="#3F3D56"/>
<path d="M829.718 550.474C829.718 550.474 898.531 477.902 899.173 476.534C903.979 440.019 917.804 423.912 919.877 425.661L955.56 438.027C955.56 438.027 944.946 471.648 937.76 491.619C930.893 510.702 851.753 557.312 850.433 559.614C851.85 562.746 852.285 566.234 851.677 569.618C851.07 573.002 849.45 576.122 847.032 578.565C844.614 581.008 841.511 582.659 838.134 583.3C834.758 583.941 831.266 583.541 828.121 582.153C824.977 580.766 822.327 578.456 820.524 575.529C818.72 572.603 817.847 569.197 818.02 565.763C818.193 562.33 819.404 559.03 821.493 556.299C823.582 553.569 826.45 551.538 829.718 550.474V550.474Z" fill="#A0616A"/>
<path d="M972.701 364.158C972.701 364.158 941.807 349.011 929.824 378.759C923.255 395.553 906.454 436.312 898.082 461.402C898.026 461.562 897.95 461.713 897.854 461.852C895.614 465.181 894.406 469.096 894.38 473.108C894.383 473.4 894.352 473.691 894.289 473.977C894.289 473.977 928.239 480.593 938.337 498.395L942.342 494.047L943.054 491.001L972.701 364.158Z" fill="#3F3D56"/>
<path d="M1085.12 620.151C1014.01 634.839 919.79 609.586 919.79 609.586L944.925 500.592L935.989 386.529C934.898 372.58 942.84 359.505 955.195 354.872L972.255 348.479L986.357 328.284L1026.64 329.606L1042.74 350.808L1055.45 357.552L1082.99 372.168L1083.11 372.229V372.289L1074.47 456.175L1069.26 506.754C1069.26 506.754 1085.09 563.64 1081.84 571.185C1078.59 578.717 1081.42 575.078 1082.21 579.105C1082.99 583.132 1085.41 583.387 1085.77 591.319C1086.15 599.24 1085.12 620.151 1085.12 620.151Z" fill="#3F3D56"/>
<path d="M1041.56 267.664C1038.66 264.801 1043.03 257.221 1042.21 253.228C1041.26 248.651 1036.22 248.517 1035.01 244C1033.72 239.141 1028.54 236.495 1023.76 234.955C1011.49 231.029 998.404 230.429 985.83 233.218C980.265 234.577 974.786 236.265 969.421 238.274C965.717 239.578 969.289 236.03 965.586 237.334C964.183 237.646 962.946 238.467 962.113 239.639C961.447 240.898 962.345 242.912 963.746 242.657C959.225 244.651 954.703 246.646 950.182 248.64C952.718 251.297 955.254 253.955 957.789 256.612C954.185 255.586 950.341 259.885 951.763 263.354C952.334 264.449 953.164 265.389 954.179 266.092C955.195 266.795 956.366 267.241 957.592 267.391C961.664 268.184 958.575 272.061 962.724 271.985C966.872 271.91 995.799 263.403 997.816 267.03C999.252 269.613 999.094 273.034 1001.14 275.162C1003.77 277.885 1008.35 276.889 1011.69 275.117C1015.03 273.344 1018.41 270.908 1022.17 271.333C1026.09 271.777 1029.06 279.026 1030.02 282.854C1030.99 286.682 1030.38 290.709 1029.76 294.609C1028.96 299.731 1020.87 304.852 1020.07 309.974C1029.04 312.455 1038.66 304.56 1042.21 290.829C1041.85 282.149 1047.75 273.766 1041.56 267.664Z" fill="#2F2E41"/>
<path d="M795.256 615.887C817.247 615.887 835.075 598.053 835.075 576.054C835.075 554.055 817.247 536.221 795.256 536.221C773.265 536.221 755.437 554.055 755.437 576.054C755.437 598.053 773.265 615.887 795.256 615.887Z" fill="#00BFA6"/>
<path d="M789.824 596.785C789.136 596.785 788.458 596.625 787.843 596.317C787.228 596.01 786.693 595.563 786.281 595.013L775.417 580.523C775.068 580.057 774.815 579.528 774.67 578.964C774.526 578.4 774.494 577.814 774.576 577.238C774.659 576.662 774.853 576.108 775.15 575.607C775.446 575.106 775.838 574.669 776.303 574.32C776.769 573.971 777.298 573.717 777.862 573.573C778.425 573.428 779.012 573.396 779.587 573.478C780.163 573.561 780.717 573.756 781.218 574.052C781.718 574.349 782.155 574.741 782.504 575.206L789.611 584.685L807.865 557.295C808.187 556.811 808.602 556.394 809.085 556.07C809.569 555.745 810.111 555.519 810.682 555.405C811.253 555.29 811.841 555.289 812.412 555.402C812.983 555.515 813.526 555.739 814.01 556.062C814.495 556.385 814.911 556.801 815.234 557.285C815.558 557.769 815.783 558.312 815.897 558.883C816.011 559.454 816.011 560.042 815.898 560.613C815.784 561.184 815.559 561.727 815.236 562.211L793.51 594.812C793.117 595.402 792.588 595.888 791.968 596.231C791.348 596.574 790.655 596.764 789.947 596.784C789.906 596.784 789.865 596.785 789.824 596.785Z" fill="white"/>
</svg>
