<svg width="769" height="900" viewBox="0 0 769 900" fill="none" xmlns="http://www.w3.org/2000/svg">
<path d="M713.754 76.1879H107.164C84.9126 76.1879 66.8184 93.7077 66.8184 115.253V517.738C66.8184 539.284 84.9126 556.803 107.164 556.803H713.754C736.006 556.803 754.1 539.284 754.1 517.738V115.253C754.1 93.7077 736.006 76.1879 713.754 76.1879V76.1879Z" fill="#F2F2F2"/>
<path d="M647.944 107.19H41.3543C19.1025 107.19 1.0083 124.709 1.0083 146.255V548.74C1.0083 570.285 19.1025 587.805 41.3543 587.805H647.944C670.196 587.805 688.29 570.285 688.29 548.74V146.255C688.29 124.709 670.196 107.19 647.944 107.19ZM684.048 430.278C684.048 515.009 613.108 583.697 525.599 583.697H41.3543C21.4149 583.697 5.25078 568.046 5.25078 548.74V146.255C5.25078 126.948 21.4148 111.297 41.3542 111.297H647.944C667.884 111.297 684.048 126.948 684.048 146.255V430.278Z" fill="#3F3D56"/>
<path d="M87.6524 500.581L84.0625 498.393C86.3961 494.802 88.8042 491.321 91.2175 488.046L94.6708 490.433C92.3041 493.642 89.9436 497.056 87.6525 500.581H87.6524Z" fill="#CCCCCC"/>
<path d="M111.045 471.307L108.008 468.439C114.482 462.015 121.295 456.5 128.257 452.048L130.596 455.476C123.886 459.767 117.307 465.093 111.045 471.307V471.307ZM216.885 445.378C211.82 445.378 207.204 444.75 203.749 444.203L204.435 440.149C207.935 440.704 212.152 441.27 216.885 441.27C221.066 441.27 225.175 440.826 229.446 439.91L230.362 443.922C225.786 444.902 221.378 445.378 216.885 445.378V445.378ZM153.405 444.835L152.129 440.917C156.686 439.525 161.407 438.482 166.16 437.815C170.242 437.244 174.145 436.966 178.09 436.966H178.351V441.074H178.09C174.35 441.074 170.647 441.338 166.768 441.881C162.241 442.516 157.744 443.51 153.405 444.835H153.405ZM254.527 432.963L251.816 429.804C257.67 425.096 261.866 419.402 266.309 413.374L268.081 410.976L271.524 413.377L269.762 415.76C265.155 422.011 260.803 427.916 254.527 432.963V432.963ZM288.55 395.299L285.94 392.06C291.658 387.739 298.119 384.238 305.691 381.357C306.98 380.865 308.213 380.427 309.396 380.037L310.765 383.924C309.64 384.296 308.47 384.712 307.243 385.18C300.056 387.915 293.942 391.224 288.55 395.299V395.299ZM339.767 381.031C338.34 381.031 336.986 381.018 335.685 381.004L335.735 376.896C337.065 376.911 338.453 376.914 339.922 376.923C344.914 376.923 351.867 376.786 361.404 375.717L361.893 379.796C352.041 380.902 344.978 381.017 339.767 381.031V381.031ZM387.7 375.651L386.859 371.626C394.479 370.134 403.344 368.357 412.119 366.165L413.18 370.143C404.305 372.36 395.374 374.149 387.7 375.651ZM438.171 362.355L436.584 358.545C445.091 355.225 452.477 351.48 459.166 347.095L461.544 350.497C454.604 355.046 446.958 358.925 438.171 362.355V362.355ZM481.036 333.003L477.593 330.602C478.777 329.011 479.8 327.46 480.789 325.959C483.71 321.531 486.731 316.95 493.925 311.328L494.428 310.938L497.057 314.161L496.59 314.523C489.934 319.726 487.23 323.828 484.365 328.171C483.345 329.718 482.288 331.319 481.036 333.003V333.003ZM519.095 302.194L517.547 298.369C525.108 295.499 533.648 293.189 542.93 291.503L543.713 295.541C534.692 297.18 526.409 299.418 519.095 302.194V302.194Z" fill="#CCCCCC"/>
<path d="M569.644 292.524L569.379 288.424C573.501 288.175 577.811 288.01 582.189 287.934L582.266 292.042C577.95 292.116 573.703 292.278 569.644 292.524V292.524Z" fill="#CCCCCC"/>
<path d="M134.961 151.7H75.4392C72.4483 151.7 70.0088 154.062 70.0088 156.958C70.0088 159.875 72.4483 162.237 75.4392 162.237H134.961C137.952 162.237 140.392 159.875 140.392 156.958C140.392 154.062 137.952 151.7 134.961 151.7V151.7Z" fill="#E6E6E6"/>
<path d="M234.66 151.7H175.138C172.147 151.7 169.708 154.062 169.708 156.958C169.708 159.875 172.147 162.237 175.138 162.237H234.66C237.651 162.237 240.09 159.875 240.09 156.958C240.09 154.062 237.651 151.7 234.66 151.7Z" fill="#E6E6E6"/>
<path d="M334.358 151.7H274.836C271.845 151.7 269.405 154.062 269.405 156.958C269.405 159.875 271.845 162.237 274.836 162.237H334.358C337.349 162.237 339.788 159.875 339.788 156.958C339.788 154.062 337.349 151.7 334.358 151.7Z" fill="#E6E6E6"/>
<path d="M610.865 497.433H69.9487V501.541H610.865V497.433Z" fill="#E6E6E6"/>
<path d="M582.291 197.562C543.79 198.527 515.069 209.495 496.869 230.116C490.144 237.757 487.408 243.775 484.523 250.142C481.659 256.427 478.732 262.897 471.923 271.338V264.355C476.144 258.357 478.414 253.346 480.641 248.478C483.653 241.823 486.517 235.539 493.644 227.467C512.651 205.901 542.433 194.46 582.164 193.454L582.291 197.562V197.562Z" fill="#CCCCCC"/>
<path d="M484.524 250.142C481.66 256.427 478.733 262.897 471.923 271.338C471.117 272.345 470.248 273.392 469.314 274.481C444.75 302.763 411.935 312.047 385.547 319.523C383.892 319.995 382.28 320.427 380.71 320.837C357.249 326.999 344.395 326.773 334.828 326.629C325.219 326.465 318.876 326.362 307.527 332.647C286.718 344.129 278.191 360.93 269.939 377.176C261.433 393.895 253.415 409.69 232.966 417.104C218.775 422.239 208.805 419.692 198.262 417.022C189.205 414.701 172.88 357.574 158.425 349.243C128.58 355.302 110.443 449.741 87.8093 500.308L83.9062 498.665C107.134 446.824 126.267 351.585 157.534 345.217C171.471 342.383 189.82 410.614 199.344 413.038C209.229 415.564 218.541 417.926 231.481 413.243C250.36 406.424 257.657 392.026 266.121 375.369C274.266 359.348 283.494 341.192 305.406 329.074C317.773 322.234 324.964 322.357 334.891 322.522C344.352 322.686 357.122 322.891 380.71 316.586C381.898 316.257 383.107 315.929 384.359 315.579C410.195 308.268 442.332 299.169 466.048 271.852C468.381 269.161 470.311 266.676 471.923 264.355C476.145 258.357 478.414 253.346 480.642 248.478C483.654 241.823 487.408 243.775 484.524 250.142V250.142Z" fill="#00BFA6"/>
<path d="M258.316 720.036C256.637 714.375 253.761 709.546 250.338 706.101L237.899 651.2L210.788 657.631L226.324 712.63C225.302 717.283 225.507 722.839 227.186 728.5C231.022 741.434 241.1 750.024 249.697 747.687C258.293 745.349 262.152 732.97 258.316 720.036L258.316 720.036Z" fill="#FFB6B6"/>
<path d="M254.565 359.901C254.565 359.901 211.749 359.052 200.862 389.242C190.953 416.722 179.206 492.216 185.556 496.579L212.586 682.428L251.131 677.299L241.239 454.308L254.565 359.901V359.901Z" fill="#00BFA6"/>
<path d="M452.833 704.878L445.239 900H344.48L340.407 812.565L322.504 900H214.512L227.982 749.695L241.897 718.085L251.315 696.663L452.833 704.878Z" fill="#2F2E41"/>
<path d="M372.226 322.851L302.225 318.743L278.891 347.497L227.981 365.983L251.315 585.751L240.709 717.202C240.709 717.202 389.196 832.221 452.833 704.878L435.863 550.835L440.105 372.144L391.317 351.605L372.226 322.851Z" fill="#00BFA6"/>
<path d="M506.989 272.861C507.749 279.981 506.784 286.678 504.563 292.047L516.224 359.44L482.942 363.874L474.697 295.034C471.389 290.217 469.032 283.853 468.272 276.732C466.537 260.465 473.798 246.411 484.489 245.341C495.18 244.272 505.254 256.593 506.989 272.86V272.861H506.989Z" fill="#FFB6B6"/>
<path d="M449.019 379.86C437.545 360.872 409.085 359.082 396.338 377.293C392.854 382.271 393.824 387.867 392.992 394.59C389.46 423.132 445.948 507.473 485.034 517.184C490.163 518.458 493.084 523.815 498.261 524.893H498.261C513.597 528.084 527.875 516.298 527.047 501.131L516.43 306.609L471.827 321.34L474.682 422.332L449.019 379.86L449.019 379.86Z" fill="#00BFA6"/>
<path d="M344.49 313.427C378.543 313.427 406.149 286.698 406.149 253.725C406.149 220.752 378.543 194.022 344.49 194.022C310.436 194.022 282.83 220.752 282.83 253.725C282.83 286.698 310.436 313.427 344.49 313.427Z" fill="#FFB6B6"/>
<path d="M401.923 209.885C401.393 210.009 410.04 201.848 410.408 201.67C418.893 197.562 410.175 237.716 404.045 236.586C388.963 233.813 382.45 228.309 376.596 242.049C374.962 245.87 373.944 250.183 370.762 252.915C366.393 256.632 359.138 256.324 355.574 260.761C352.711 264.334 353.538 269.592 355.659 273.618C357.78 277.664 361.005 281.094 362.935 285.223C365.099 289.865 355.871 304.632 352.35 312.93V312.951L352.329 312.999C351.393 315.176 349.17 308.906 346.823 308.28C344.014 307.531 339.875 313.953 335.401 312.786C335.38 312.786 335.359 312.766 335.338 312.766C331.074 311.615 326.322 310.383 321.613 309.151H321.592C308.334 305.659 304.983 310.671 304.346 310.527L296.116 302.188C293.291 300.197 293.611 293.768 291.619 292.042C289.99 290.63 285.929 293.892 284.733 292.535C278.864 285.881 277.514 279.223 274.055 266.08C270.894 254.065 264.34 218.101 277.81 216.478C290.516 214.938 281.225 197.808 294.016 198.445C293.252 195.323 294.674 191.975 296.986 189.675C299.277 187.354 302.331 185.916 305.407 184.684C320.574 178.686 318.05 173.531 334.044 177.023C335.635 174.866 358.735 176.304 361.62 177.023C361.832 177.064 354.471 178.768 365.862 177.023C365.438 179.549 372.65 180.658 372.226 183.184C373.817 181.11 390.914 193.023 391.317 195.508C391.848 198.609 387.011 197.028 390.235 197.5C392.145 197.788 395.411 201.546 395.093 203.415C396.472 201.608 397.851 199.821 399.251 198.014C399.505 198.034 399.738 198.075 399.993 198.116C406.442 199.307 399.049 219.719 399.314 213.356C399.802 201.67 408.351 208.509 401.923 209.885V209.885Z" fill="#2F2E41"/>
<path d="M638.144 527.649C638.619 528.782 640.258 528.782 640.733 527.649C644.045 519.743 648.761 510.888 653.89 504.122C654.711 503.039 653.579 501.591 652.274 502.048L641.279 505.9V439.997H637.598V505.9L626.599 502.048C625.294 501.591 624.162 503.038 624.984 504.122C630.113 510.888 634.829 519.743 638.144 527.649V527.649Z" fill="#3F3D56"/>
<path d="M710.246 595.505C709.89 596.678 711.174 597.666 712.274 597.064C719.946 592.867 729.326 588.773 737.688 586.563C739.027 586.209 739.071 584.394 737.755 583.966L726.671 580.361L769 528.753L766.118 526.537L723.789 578.145L717.65 568.505C716.921 567.361 715.105 567.813 715.052 569.156C714.723 577.544 712.729 587.318 710.246 595.505V595.505Z" fill="#3F3D56"/>
<path d="M675.812 639.484H604.281C599.839 639.484 596.226 635.986 596.226 631.686C586.769 604.92 586.956 578.693 596.226 552.973C596.226 548.673 599.839 545.175 604.281 545.175H675.812C680.253 545.175 683.866 548.673 683.866 552.973V631.686C683.866 635.986 680.253 639.484 675.812 639.484Z" fill="#E6E6E6"/>
<path d="M619.607 547.499C608.02 547.499 598.626 556.594 598.626 567.813V630.016C598.626 633.962 601.93 637.161 606.006 637.161H645.563C665.392 637.161 681.467 621.596 681.467 602.396V554.644C681.467 550.697 678.163 547.499 674.087 547.499H619.607V547.499Z" fill="white"/>
<path d="M656.706 570.373H623.216C622.372 570.373 621.685 569.708 621.685 568.89C621.685 568.073 622.372 567.408 623.216 567.408H656.706C657.55 567.408 658.237 568.073 658.237 568.89C658.237 569.708 657.55 570.373 656.706 570.373Z" fill="#E6E6E6"/>
<path d="M656.706 601.988H623.216C622.372 601.988 621.685 601.323 621.685 600.505C621.685 599.688 622.372 599.023 623.216 599.023H656.706C657.55 599.023 658.237 599.688 658.237 600.505C658.237 601.323 657.55 601.988 656.706 601.988Z" fill="#E6E6E6"/>
<path d="M674.676 586.191H605.244C604.4 586.191 603.713 585.525 603.713 584.708C603.713 583.89 604.4 583.226 605.244 583.226H674.676C675.521 583.226 676.207 583.89 676.207 584.708C676.207 585.525 675.521 586.191 674.676 586.191Z" fill="#E6E6E6"/>
<path d="M675.495 614.842H646.523C645.679 614.842 644.992 614.177 644.992 613.359C644.992 612.542 645.679 611.877 646.523 611.877H675.495C676.339 611.877 677.026 612.542 677.026 613.359C677.026 614.177 676.339 614.842 675.495 614.842Z" fill="#E6E6E6"/>
<path d="M26.4376 50.7777C41.0387 50.7777 52.8752 39.5584 52.8752 25.7186C52.8752 11.8788 41.0387 0.659424 26.4376 0.659424C11.8365 0.659424 0 11.8788 0 25.7186C0 39.5584 11.8365 50.7777 26.4376 50.7777Z" fill="#00BFA6"/>
<path d="M238.377 17.1457H96.0736C91.1917 17.1457 87.2197 13.2998 87.2197 8.57287C87.2197 3.84593 91.1917 0 96.0736 0H238.377C243.259 0 247.231 3.84593 247.231 8.57287C247.231 13.2998 243.259 17.1457 238.377 17.1457Z" fill="#F2F2F2"/>
<path d="M349.431 46.1616H96.0736C91.1917 46.1616 87.2197 42.3157 87.2197 37.5887C87.2197 32.8618 91.1917 29.0159 96.0736 29.0159H349.431C354.313 29.0159 358.285 32.8618 358.285 37.5887C358.285 42.3157 354.313 46.1616 349.431 46.1616V46.1616Z" fill="#F2F2F2"/>
</svg>
