<svg width="344" height="442" viewBox="0 0 344 442" fill="none" xmlns="http://www.w3.org/2000/svg">
<path d="M162.338 206.965C216.466 206.965 260.345 163.091 260.345 108.968C260.345 54.8458 216.466 10.9709 162.338 10.9709C108.21 10.9709 64.3307 54.8458 64.3307 108.968C64.3307 163.091 108.21 206.965 162.338 206.965Z" fill="#2F2E41"/>
<path d="M162.378 219.839C210.732 219.839 249.932 180.644 249.932 132.294C249.932 83.9439 210.732 44.7485 162.378 44.7485C114.023 44.7485 74.8237 83.9439 74.8237 132.294C74.8237 180.644 114.023 219.839 162.378 219.839Z" fill="#FFB8B8"/>
<path d="M343.855 358.198C301.275 406.642 241.351 436.401 177.018 441.05C112.685 445.699 49.1037 424.865 0 383.046L21.0806 324.229C25.8445 313.783 33.3624 304.83 42.828 298.331C52.2936 291.831 63.3499 288.031 74.8114 287.337L88.2224 286.513L120.201 258.936C120.201 258.936 206.365 255.86 205.087 254.386L257.279 285.777L257.236 285.56L277.753 286.817C289.216 287.508 300.273 291.307 309.739 297.807C319.205 304.307 326.723 313.261 331.484 323.71L343.855 358.198Z" fill="#0BDA9D"/>
<path d="M254.749 101.591C255.363 95.0551 255.644 88.4919 255.592 81.9271C255.95 68.9438 253.571 56.0306 248.61 44.0269C242.508 30.7362 231.629 20.2273 218.134 14.5885C204.758 9.19407 189.81 9.20709 176.444 14.6249C164.376 7.00135 150.968 0.957698 136.847 0.209031C122.726 -0.539484 107.796 4.69872 99.0944 16.2294C97.1512 19.2731 94.9441 22.1401 92.4987 24.7973C85.5038 31.2743 74.8734 30.3401 65.576 29.0157C69.7461 32.5894 73.9172 36.1631 78.0895 39.7368C73.0417 41.0554 67.9934 42.3741 62.9446 43.6925C68.8358 47.265 74.7264 50.8375 80.6164 54.41C63.5151 64.6736 55.7421 87.0752 57.7955 107.421C59.7379 126.683 69.0384 144.297 80.1565 159.953C84.5916 150.595 83.636 139.397 83.5628 128.856C83.5222 125.438 83.7308 122.02 84.187 118.632C121.761 127.638 161.021 133.418 200.835 119.114L208.825 99.5612C209.947 99.6765 211.069 99.7847 212.189 99.9039L216.818 119.132C227.313 123.422 237.83 127.17 248.351 123.231C248.863 126.201 249.171 129.232 249.408 132.145C250.311 128.661 251.094 125.15 251.8 121.626C253.191 120.88 254.522 120.029 255.784 119.081C256.038 113.231 255.691 107.371 254.749 101.591V101.591Z" fill="#2F2E41"/>
</svg>
