<svg width="445" height="582" viewBox="0 0 445 582" fill="none" xmlns="http://www.w3.org/2000/svg">
<path d="M441.729 278.242C440.094 281.206 437.881 283.744 435.244 285.678C432.608 287.612 429.613 288.896 426.47 289.438C423.328 289.98 420.114 289.767 417.055 288.815C413.996 287.863 411.167 286.195 408.766 283.928L341.667 325.696L344.168 282.154L407.503 249.166C411.279 245.041 416.318 242.563 421.666 242.202C427.013 241.84 432.296 243.62 436.515 247.204C440.734 250.788 443.595 255.928 444.556 261.648C445.517 267.369 444.511 273.273 441.729 278.242Z" fill="#FFB8B8"/>
<path d="M247.472 445.565C267.375 475.801 266.663 526.385 261.11 581.749H167.005L162.913 571.387L157.458 581.749H68.8077C68.8077 581.749 75.627 441.124 87.9016 436.684C100.176 432.243 247.472 445.565 247.472 445.565Z" fill="#2F2E41"/>
<path d="M167.005 129.668C140.642 129.668 119.27 106.472 119.27 77.8591C119.27 49.2459 140.642 26.0502 167.005 26.0502C193.368 26.0502 214.739 49.2459 214.739 77.8591C214.739 106.472 193.368 129.668 167.005 129.668Z" fill="#FFB8B8"/>
<path d="M132.504 143.11L123.169 162.529L58.6039 193.767L75.5755 372.027L82.7186 390.487L78.8592 406.518L88.1639 418.349C78.8239 427.521 77.6376 437.123 82.7186 447.055L112.451 454.447C112.451 454.447 277.77 470.402 263.838 442.605C248.615 412.232 244.738 322.534 278.345 274.601C306.876 233.907 284.971 181.103 284.971 181.103L217.295 159.151L192.402 143.11L132.504 143.11Z" fill="#0BDA9D"/>
<path d="M145.813 1.9673C145.588 1.45219 145.227 1.0216 144.776 0.730833C144.324 0.440069 143.803 0.302403 143.279 0.335522C165.133 -1.08328 188.152 1.68124 206.435 14.752C210.864 17.9187 215.04 21.6957 219.86 23.9929C220.087 24.1038 220.285 24.2768 220.432 24.4948C220.58 24.7129 220.673 24.9688 220.703 25.2375C220.733 25.5063 220.698 25.7788 220.602 26.0286C220.506 26.2785 220.352 26.4971 220.155 26.6634L219.626 27.114C219.417 27.2917 219.257 27.5283 219.163 27.7978C219.07 28.0674 219.046 28.3597 219.095 28.6428C219.143 28.926 219.263 29.1893 219.44 29.404C219.617 29.6188 219.844 29.7767 220.098 29.8607C220.363 29.9483 220.599 30.1161 220.779 30.3445C220.959 30.5728 221.074 30.8521 221.113 31.1495C221.151 31.447 221.11 31.7501 220.995 32.0232C220.88 32.2962 220.695 32.5279 220.463 32.6909L216.406 35.5368C216.202 35.6776 216.033 35.8719 215.916 36.1017C215.799 36.3316 215.737 36.5897 215.736 36.8524C215.734 37.1151 215.794 37.3739 215.909 37.6052C216.023 37.8364 216.19 38.0326 216.393 38.1759C216.736 38.4062 217.097 38.6048 217.472 38.7695C217.705 38.8645 217.911 39.023 218.071 39.2297C218.231 39.4364 218.339 39.6843 218.386 39.9497C218.432 40.215 218.414 40.4888 218.334 40.7446C218.255 41.0004 218.116 41.2296 217.931 41.4101C216.174 43.1076 214.826 45.2457 214.005 47.6381C212.653 51.4541 212.41 55.61 212.182 59.691C210.784 53.8026 204.863 50.3365 199.27 49.9843C193.678 49.6321 188.223 51.635 182.78 53.0747C170.925 56.2016 158.612 56.7157 146.57 54.5866C150.659 63.4928 147.21 74.116 143.739 83.3261L132.504 78.0994C117.074 68.646 127.822 108.636 133.591 114.125C121.812 118.557 90.9833 69.3664 100.901 50.707C106.06 41.0007 102.398 28.4819 112.54 19.2762C117.511 13.5965 127.436 16.1209 132.504 11.4004C134.499 9.54254 131.458 4.57198 134.199 3.48873C135.11 3.12894 145.662 1.60468 145.813 1.9673Z" fill="#2F2E41"/>
<path d="M226.668 164.166C235.427 206.372 257.893 304.918 280.685 325.527C282.131 327.009 283.864 328.119 285.757 328.778C365.873 349.961 391.543 295.926 391.543 295.926C391.543 295.926 370.073 284.571 369.529 262.374L326.231 276.955L288.488 184.767L282.933 179.144L282.902 179.11L226.668 164.166Z" fill="#3F3D56"/>
<path d="M55.849 553.919C53.555 551.525 51.7723 548.615 50.6267 545.393C49.481 542.171 49.0002 538.715 49.2181 535.27C49.436 531.824 50.3474 528.472 51.888 525.45C53.4285 522.428 55.5609 519.809 58.1348 517.779L35.6754 437.442L74.2113 449.85L89.631 524.237C92.4878 529.156 93.5828 535.041 92.7084 540.778C91.8341 546.515 89.0513 551.705 84.8872 555.363C80.7231 559.022 75.4672 560.896 70.1152 560.63C64.7633 560.363 59.6873 557.976 55.849 553.919Z" fill="#FFB8B8"/>
<path d="M76.4049 189.273L58.6039 193.767C58.6039 193.767 -14.9727 349.14 2.75729 378.745C20.4873 408.351 42.2079 506.365 42.2079 506.365C42.2079 506.365 74.3334 499.434 86.6081 481.671L64.1304 365.423L87.3158 267.726L76.4049 189.273Z" fill="#0BDA9D"/>
<path d="M414.121 419.997L413.482 169.759C413.463 164.694 411.595 159.844 408.286 156.273C404.977 152.701 400.498 150.7 395.832 150.709L221.708 151.232C217.042 151.252 212.573 153.28 209.282 156.872C205.992 160.463 204.148 165.324 204.156 170.389L204.795 420.627C204.813 425.692 206.682 430.542 209.991 434.114C213.299 437.685 217.778 439.686 222.445 439.678L396.568 439.154C401.235 439.134 405.704 437.106 408.994 433.515C412.285 429.923 414.128 425.062 414.121 419.997Z" fill="#4E4E4E"/>
<path d="M400.571 344.455L400.161 183.579C400.144 178.836 398.394 174.294 395.295 170.949C392.196 167.604 388.001 165.73 383.631 165.738L233.986 166.188C229.616 166.206 225.431 168.106 222.349 171.469C219.267 174.832 217.54 179.385 217.547 184.129L218.116 406.807C218.133 411.55 219.883 416.093 222.982 419.437C226.081 422.782 230.276 424.656 234.646 424.648L327.348 424.369C346.815 424.287 365.457 415.827 379.185 400.845C392.912 385.864 400.603 365.584 400.571 344.455Z" fill="white"/>
<path d="M251.133 236.404H367.817C369.674 236.404 371.455 235.603 372.768 234.178C374.081 232.753 374.818 230.821 374.818 228.805C374.818 226.79 374.081 224.857 372.768 223.432C371.455 222.007 369.674 221.207 367.817 221.207H251.133C249.276 221.207 247.495 222.007 246.183 223.432C244.87 224.857 244.132 226.79 244.132 228.805C244.132 230.821 244.87 232.753 246.183 234.178C247.495 235.603 249.276 236.404 251.133 236.404Z" fill="#0BB080"/>
<path d="M342.147 211.366H367.817C369.674 211.366 371.455 210.565 372.768 209.14C374.081 207.715 374.818 205.783 374.818 203.767C374.818 201.752 374.081 199.819 372.768 198.394C371.455 196.969 369.674 196.169 367.817 196.169H342.147C340.29 196.169 338.509 196.969 337.196 198.394C335.883 199.819 335.146 201.752 335.146 203.767C335.146 205.783 335.883 207.715 337.196 209.14C338.509 210.565 340.29 211.366 342.147 211.366Z" fill="#0BB080"/>
<path d="M251.133 271.442H367.817C369.674 271.442 371.455 270.642 372.768 269.217C374.081 267.792 374.818 265.859 374.818 263.843C374.818 261.828 374.081 259.895 372.768 258.47C371.455 257.045 369.674 256.245 367.817 256.245H251.133C249.276 256.245 247.495 257.045 246.183 258.47C244.87 259.895 244.132 261.828 244.132 263.843C244.132 265.859 244.87 267.792 246.183 269.217C247.495 270.642 249.276 271.442 251.133 271.442Z" fill="#0BB080"/>
<path d="M251.133 306.48H367.817C369.674 306.48 371.455 305.68 372.768 304.254C374.081 302.829 374.818 300.897 374.818 298.881C374.818 296.866 374.081 294.933 372.768 293.508C371.455 292.083 369.674 291.283 367.817 291.283H251.133C249.276 291.283 247.495 292.083 246.183 293.508C244.87 294.933 244.132 296.866 244.132 298.881C244.132 300.897 244.87 302.829 246.183 304.254C247.495 305.68 249.276 306.48 251.133 306.48Z" fill="#0BB080"/>
<path d="M260.574 398.804C245.189 398.804 232.717 385.267 232.717 368.569C232.717 351.871 245.189 338.334 260.574 338.334C275.959 338.334 288.432 351.871 288.432 368.569C288.432 385.267 275.959 398.804 260.574 398.804Z" fill="#0BB080"/>
<path d="M256.771 384.305C256.29 384.305 255.816 384.183 255.385 383.95C254.955 383.716 254.581 383.377 254.292 382.959L246.692 371.961C246.448 371.608 246.269 371.206 246.168 370.778C246.067 370.349 246.044 369.904 246.101 369.466C246.159 369.029 246.295 368.608 246.502 368.227C246.71 367.847 246.984 367.515 247.31 367.249C247.636 366.984 248.007 366.791 248.401 366.682C248.796 366.572 249.206 366.548 249.609 366.611C250.012 366.674 250.4 366.822 250.75 367.048C251.101 367.273 251.406 367.572 251.65 367.925L256.622 375.12L269.393 354.33C269.618 353.961 269.908 353.644 270.246 353.397C270.584 353.15 270.964 352.978 271.364 352.89C271.764 352.803 272.175 352.802 272.575 352.887C272.975 352.973 273.356 353.143 273.695 353.389C274.035 353.634 274.326 353.95 274.552 354.318C274.779 354.686 274.937 355.099 275.016 355.533C275.095 355.967 275.095 356.414 275.015 356.848C274.935 357.282 274.777 357.694 274.549 358.061L259.35 382.807C259.075 383.255 258.705 383.624 258.271 383.885C257.838 384.145 257.353 384.289 256.857 384.304C256.828 384.304 256.8 384.305 256.771 384.305Z" fill="white"/>
</svg>
