<svg width="670" height="511" viewBox="0 0 670 511" fill="none" xmlns="http://www.w3.org/2000/svg">
<path d="M406.269 153.869C407.102 153.907 407.928 153.688 408.633 153.241C409.338 152.795 409.888 152.142 410.21 151.372C410.532 150.602 410.61 149.752 410.432 148.936C410.255 148.12 409.831 147.379 409.218 146.812C409.116 146.404 409.042 146.111 408.939 145.703C408.976 145.614 409.013 145.525 409.05 145.437C412.797 136.499 425.495 136.561 429.21 145.512C432.507 153.456 436.705 161.414 437.739 169.814C438.194 173.527 438.002 177.29 437.171 180.938C444.916 164.038 448.937 145.67 448.963 127.079C448.965 122.414 448.706 117.752 448.187 113.116C447.758 109.316 447.164 105.542 446.403 101.795C442.252 81.4666 433.34 62.4128 420.399 46.1988C414.136 42.7799 409.07 37.5226 405.885 31.1351C404.732 28.839 403.916 26.388 403.465 23.8582C404.171 23.9509 406.129 13.186 405.596 12.5256C406.581 11.0308 408.343 10.2878 409.418 8.82924C414.767 1.57522 422.135 2.84182 425.982 12.6995C434.2 16.8485 434.279 23.7293 429.237 30.3471C426.029 34.5574 425.588 40.2543 422.774 44.7618C423.063 45.1326 423.364 45.4919 423.654 45.8627C428.947 52.672 433.561 59.9839 437.429 67.6936C436.335 59.1429 437.95 48.8415 440.704 42.2011C443.839 34.6351 449.716 28.2629 454.891 21.7221C461.106 13.8656 473.852 17.2943 474.948 27.2537C474.958 27.3502 474.968 27.4466 474.979 27.5429C474.21 27.9767 473.458 28.4371 472.721 28.9242C471.797 29.5423 471.08 30.4255 470.665 31.458C470.251 32.4905 470.158 33.6242 470.399 34.7105C470.639 35.7969 471.202 36.7851 472.014 37.5459C472.825 38.3067 473.848 38.8044 474.947 38.9739L475.06 38.9913C474.786 41.7626 474.302 44.509 473.612 47.2069C480.25 72.8899 465.918 82.2442 445.453 82.6644C445.002 82.8961 444.561 83.1279 444.11 83.3481C447.995 94.3645 450.433 105.84 451.361 117.485C451.886 124.355 451.855 131.257 451.268 138.122L451.303 137.879C452.786 130.244 456.856 123.356 462.828 118.377C471.697 111.088 484.228 108.404 493.796 102.546C498.402 99.7257 504.304 103.37 503.5 108.712C503.488 108.797 503.475 108.883 503.461 108.968C502.035 109.549 500.646 110.219 499.303 110.972C498.534 111.406 497.782 111.867 497.046 112.354C496.121 112.972 495.404 113.855 494.99 114.888C494.576 115.92 494.482 117.054 494.723 118.14C494.964 119.226 495.527 120.215 496.338 120.976C497.15 121.736 498.172 122.234 499.272 122.404L499.384 122.421C499.465 122.432 499.535 122.444 499.616 122.456C497.179 128.277 493.758 133.635 489.504 138.296C485.353 160.716 467.524 162.843 448.453 156.314H448.442C446.349 165.41 443.318 174.264 439.395 182.734H407.079C406.963 182.374 406.858 182.004 406.754 181.644C409.745 181.832 412.749 181.653 415.696 181.111C413.299 178.168 410.901 175.202 408.503 172.259C408.45 172.204 408.399 172.145 408.353 172.085C407.136 170.578 405.909 169.084 404.692 167.577L404.692 167.575C404.627 162.958 405.157 158.351 406.268 153.869L406.269 153.869Z" fill="#F2F2F2"/>
<path d="M510.028 71.1319C504.019 49.2156 552.484 30.422 565.211 48.0712C566.981 45.562 573.521 44.0379 576.521 44.8076C579.522 45.5774 582.046 47.5016 584.508 49.3644C587.893 51.966 591.402 54.66 593.479 58.4008C595.572 62.1262 595.895 67.2064 593.079 70.4391C590.848 73.0099 584.262 74.6726 580.907 75.3499C578.568 75.8271 576.598 76.212 574.906 76.4891C573.368 74.273 572.66 71.5861 572.905 68.8997C571.766 69.6686 570.811 70.6801 570.108 71.8619C569.406 73.0436 568.974 74.3662 568.843 75.7348C568.796 76.3044 587.755 146.087 587.755 146.087C585.477 147.383 583.081 148.461 580.599 149.304C575.69 141.798 571.929 133.599 569.443 124.981C568.871 130.744 568.943 136.553 569.658 142.3C570.038 145.522 570.583 148.723 571.289 151.89C548.761 156.755 514.875 155.154 500.133 134.464C500.13 134.378 500.128 134.293 500.126 134.207C500.114 133.39 499.819 132.603 499.291 131.98C498.763 131.357 498.035 130.937 497.232 130.792C496.428 130.647 495.6 130.786 494.887 131.185C494.175 131.584 493.623 132.218 493.327 132.979C492.969 133.892 492.64 134.682 492.347 135.311C488.053 119.947 493.608 102.167 510.028 71.1319Z" fill="#2F2E41"/>
<path d="M471.691 438.565V439.283C471.663 439.044 471.663 438.803 471.691 438.565Z" fill="#2F2E41"/>
<path d="M493.753 314.534C494.326 314.379 494.909 314.265 495.499 314.195C494.822 314.305 494.24 314.418 493.753 314.534Z" fill="#2F2E41"/>
<path d="M493.243 314.664C493.398 314.621 493.57 314.577 493.753 314.534C493.583 314.578 493.418 314.611 493.243 314.664Z" fill="#2F2E41"/>
<path d="M656.241 510.381H573.662C572.484 509.44 571.665 508.123 571.344 506.65C571.022 505.177 571.216 503.638 571.894 502.291C574.15 497.115 569.73 492.386 569.73 492.386C568.229 490.627 567.186 488.525 566.692 486.266C566.198 484.007 566.269 481.661 566.899 479.436C569.087 471.791 560.513 450.215 560.513 450.215C560.513 450.215 555.891 478.076 550.227 510.381H471.691C470.375 508.139 469.682 505.587 469.682 502.987C469.682 500.388 470.375 497.835 471.691 495.593C476.268 487.83 471.691 486.341 471.691 486.341C471.691 486.341 467.114 477.654 471.691 471.346C476.268 465.038 471.691 439.283 471.691 439.283C471.863 440.422 473.167 438.351 475.175 434.01C478.231 427.405 482.902 415.528 487.62 401.739C490.994 391.898 494.395 381.07 497.237 370.483H497.244C497.989 367.702 498.695 364.946 499.362 362.215C500.666 356.859 501.784 351.656 502.632 346.77C504.474 336.245 505.081 327.204 503.667 321.324C502.494 316.431 499.928 313.732 495.499 314.195C497.872 313.801 501.349 313.429 505.633 313.077C506.406 313.015 507.206 312.953 508.034 312.884C539.989 310.468 608.55 309.081 608.55 309.081L629.55 346.7L656.144 394.355C656.144 394.355 655.42 458.282 656.241 510.381Z" fill="#2F2E41"/>
<path d="M568.099 146.482L519.718 136.215L510.111 155.559L477.761 174.295C477.761 174.295 498.614 259.589 498.495 271.585C498.193 302.041 449.48 370.314 486.275 365.062C523.069 359.81 530.543 337.81 542.355 341.288C553.008 344.426 566.016 358.382 574.724 348.4C583.432 338.419 586.499 349.945 592.006 350.343C594.623 350.533 593.047 337.739 599.631 350.741C606.215 363.743 641.129 346.241 629.296 334.403C609.588 314.688 605.582 169.352 605.582 169.352L583.643 162.599L568.099 146.482Z" fill="#F9A826"/>
<path d="M476.846 456.232C478.79 453.913 479.753 450.926 479.53 447.908C479.306 444.89 477.915 442.078 475.65 440.071C475.184 439.67 474.685 439.309 474.158 438.99L482.248 399.274L463.547 388.078L458.345 443.682C457.195 445.967 456.832 448.569 457.315 451.082C457.798 453.595 459.099 455.877 461.015 457.572C462.114 458.527 463.391 459.255 464.771 459.716C466.152 460.177 467.61 460.361 469.062 460.258C470.514 460.155 471.931 459.767 473.233 459.116C474.535 458.465 475.696 457.564 476.65 456.464C476.717 456.388 476.782 456.31 476.846 456.232Z" fill="#A0616A"/>
<path d="M534.912 246.885C534.794 245.608 533.166 245.029 530.91 244.228C528.645 243.53 526.491 242.51 524.515 241.199C519.52 237.589 521.487 233.814 524.205 228.597C524.736 227.582 525.288 226.526 525.805 225.429C527.344 222.178 524.895 208.769 518.513 185.566C516.547 178.423 516.554 173.378 515.195 170.031C513.843 166.684 511.131 165.035 503.743 164.69C494.812 164.238 486.067 167.348 479.424 173.337C479.245 173.496 479.059 173.668 478.88 173.834C478.541 174.151 478.21 174.476 477.886 174.807C471.743 180.989 468.228 189.308 468.076 198.023L468.041 199.507L466.517 270.398L462.233 332.608L456.327 418.302L460.701 418.516L478.155 419.386L480.273 419.489L485.295 398.413L491.339 373.05L493.56 363.733L500.452 334.83L503.667 321.324L505.633 313.077L506.433 309.709L510.338 293.339C510.428 292.994 519.41 257.541 529.765 251.613C533.628 249.404 535.022 248.121 534.912 246.885Z" fill="#F9A826"/>
<path d="M651.096 455.809C648.914 453.713 647.636 450.847 647.534 447.822C647.432 444.798 648.514 441.853 650.55 439.614C650.971 439.165 651.428 438.752 651.917 438.379L639.61 399.762L657.001 386.621L668.142 441.345C669.532 443.493 670.171 446.041 669.961 448.591C669.751 451.141 668.702 453.55 666.98 455.442C665.989 456.508 664.798 457.37 663.475 457.976C662.152 458.582 660.722 458.922 659.267 458.976C657.813 459.03 656.362 458.796 654.998 458.289C653.633 457.782 652.382 457.011 651.316 456.02C651.241 455.951 651.168 455.88 651.096 455.809Z" fill="#A0616A"/>
<path d="M659.603 372.014C659.603 372.014 646.039 324.275 650.176 319.107C654.312 313.939 642.096 312.93 647.36 303.305C652.625 293.68 645.358 292.07 645.358 292.07L641.415 269.94L634.366 215.584L634.152 213.967L632.102 198.153C631.529 193.636 630.052 189.281 627.758 185.348C625.465 181.416 622.402 177.986 618.753 175.265C618.567 175.122 618.377 174.985 618.186 174.848C617.319 174.223 616.432 173.644 615.526 173.111C608.76 169.117 600.814 167.607 593.055 168.841C578.435 171.118 582.985 176.572 580.614 191.183C576.761 214.941 575.761 228.532 577.64 231.603C578.273 232.637 578.938 233.627 579.572 234.576C582.836 239.478 585.196 243.015 580.615 247.148C578.79 248.659 576.759 249.902 574.583 250.84C572.43 251.883 570.871 252.631 570.892 253.913C570.917 255.155 572.439 256.277 576.514 258.056C581.453 260.218 586.757 268.392 591.101 276.742C594.548 283.473 597.623 290.388 600.31 297.457L637.651 402.517L643.742 419.651L645.843 419.318L663.096 416.582L667.423 415.897L659.603 372.014Z" fill="#F9A826"/>
<path d="M547.687 135.49C569.487 135.49 587.159 117.811 587.159 96.0028C587.159 74.1947 569.487 56.5157 547.687 56.5157C525.887 56.5157 508.215 74.1947 508.215 96.0028C508.215 117.811 525.887 135.49 547.687 135.49Z" fill="#A0616A"/>
<path d="M488.484 74.2109C482.475 52.2946 530.94 33.501 543.667 51.1502C545.437 48.641 551.977 47.1169 554.977 47.8866C557.978 48.6563 560.502 50.5806 562.964 52.4434C566.35 55.045 569.858 57.739 571.935 61.4798C574.028 65.2052 574.351 70.2854 571.535 73.5181C569.304 76.0889 562.718 77.7515 559.363 78.4289C557.024 78.9061 555.054 79.291 553.362 79.568C551.824 77.352 551.116 74.665 551.361 71.9787C550.222 72.7475 549.267 73.7591 548.564 74.9408C547.862 76.1226 547.43 77.4452 547.299 78.8137C547.252 79.3833 566.211 149.166 566.211 149.166C563.933 150.462 561.537 151.54 559.055 152.383C554.146 144.877 550.385 136.678 547.899 128.06C547.327 133.823 547.399 139.632 548.114 145.379C548.494 148.601 549.039 151.802 549.745 154.969C527.217 159.834 493.331 158.233 478.589 137.543C478.586 137.457 478.584 137.372 478.582 137.286C478.57 136.469 478.275 135.682 477.747 135.059C477.219 134.436 476.491 134.016 475.688 133.871C474.884 133.726 474.056 133.865 473.343 134.264C472.631 134.663 472.079 135.297 471.783 136.058C471.426 136.971 471.096 137.761 470.803 138.39C466.509 123.026 472.064 105.246 488.484 74.2109Z" fill="#2F2E41"/>
<path d="M292.726 210.656C291.892 210.694 291.067 210.475 290.362 210.029C289.657 209.582 289.106 208.929 288.784 208.159C288.463 207.389 288.385 206.539 288.562 205.723C288.74 204.907 289.164 204.166 289.777 203.599C289.879 203.191 289.953 202.898 290.055 202.49C290.019 202.401 289.982 202.312 289.945 202.224C286.198 193.286 273.5 193.348 269.785 202.299C266.487 210.243 262.289 218.201 261.256 226.601C260.801 230.314 260.993 234.077 261.823 237.725C254.079 220.825 250.058 202.457 250.032 183.866C250.03 179.201 250.289 174.54 250.808 169.903C251.236 166.103 251.831 162.329 252.592 158.582C256.743 138.254 265.655 119.2 278.596 102.986C284.859 99.567 289.925 94.3097 293.109 87.9222C294.263 85.6261 295.078 83.1751 295.53 80.6453C294.824 80.738 292.866 69.9732 293.399 69.3127C292.414 67.8179 290.652 67.0749 289.576 65.6164C284.228 58.3623 276.859 59.6289 273.013 69.4866C264.795 73.6356 264.715 80.5164 269.758 87.1342C272.966 91.3445 273.406 97.0415 276.221 101.549C275.932 101.92 275.63 102.279 275.341 102.65C270.047 109.459 265.434 116.771 261.566 124.481C262.66 115.93 261.045 105.629 258.291 98.9882C255.155 91.4222 249.279 85.0501 244.104 78.5092C237.888 70.6527 225.142 74.0815 224.047 84.0408C224.037 84.1373 224.026 84.2337 224.016 84.33C224.785 84.7638 225.537 85.2242 226.273 85.7113C227.198 86.3294 227.915 87.2126 228.329 88.2451C228.744 89.2776 228.837 90.4113 228.596 91.4976C228.356 92.584 227.793 93.5723 226.981 94.333C226.169 95.0938 225.147 95.5915 224.048 95.761L223.935 95.7784C224.209 98.5497 224.693 101.296 225.383 103.994C218.744 129.677 233.077 139.031 253.541 139.452C253.993 139.683 254.433 139.915 254.885 140.135C250.999 151.152 248.562 162.627 247.634 174.272C247.109 181.142 247.14 188.044 247.727 194.909L247.692 194.666C246.209 187.032 242.138 180.143 236.167 175.164C227.298 167.875 214.767 165.192 205.199 159.333C200.593 156.513 194.691 160.157 195.494 165.499C195.507 165.584 195.52 165.67 195.534 165.755C196.96 166.336 198.349 167.006 199.692 167.76C200.46 168.193 201.213 168.654 201.949 169.141C202.874 169.759 203.59 170.642 204.005 171.675C204.419 172.707 204.512 173.841 204.272 174.927C204.031 176.014 203.468 177.002 202.657 177.763C201.845 178.523 200.823 179.021 199.723 179.191L199.611 179.208C199.53 179.22 199.46 179.231 199.379 179.243C201.816 185.064 205.237 190.422 209.491 195.083C213.642 217.503 231.471 219.63 250.542 213.101H250.553C252.646 222.197 255.677 231.051 259.6 239.521H291.916C292.032 239.161 292.136 238.791 292.241 238.431C289.249 238.619 286.246 238.441 283.298 237.898C285.696 234.955 288.094 231.989 290.492 229.046C290.545 228.991 290.595 228.933 290.642 228.872C291.858 227.365 293.086 225.871 294.302 224.364L294.303 224.362C294.368 219.745 293.838 215.138 292.727 210.656L292.726 210.656Z" fill="#F2F2F2"/>
<path d="M141.934 48.072C141.2 49.7819 118.585 49.5987 117.549 51.1213C109.563 62.8763 138.351 112.891 130.365 124.661L129.252 125.987C131.858 124.786 134.36 123.374 136.735 121.764C136.949 116.946 137.162 112.113 137.391 107.295C139.783 110.356 141.713 113.752 143.121 117.373C144.981 116.062 146.506 113.631 154.475 108.85C157.702 105.305 161.421 102.242 165.52 99.7557L141.934 48.072Z" fill="#2F2E41"/>
<path d="M158.356 144.411C155.861 142.784 153.013 141.777 150.05 141.472C147.087 141.167 144.095 141.573 141.32 142.656C138.546 143.74 136.069 145.47 134.097 147.703C132.125 149.936 130.713 152.607 129.979 155.494L95.6113 245.077L36.5369 211.526C36.2775 207.67 34.804 203.994 32.3276 201.028C29.8511 198.061 26.4991 195.955 22.7523 195.011C19.0054 194.068 15.0561 194.336 11.471 195.777C7.88582 197.218 4.84891 199.758 2.79582 203.032C0.742728 206.306 -0.221066 210.147 0.0426711 214.003C0.306408 217.859 1.78413 221.533 4.26389 224.497C6.74364 227.461 10.098 229.563 13.846 230.502C17.5939 231.441 21.5428 231.169 25.1264 229.724C37.5669 243.006 91.5012 297.465 113.83 276.187C132.598 258.301 159.682 188.984 166.202 165.047C167.247 161.219 167.05 157.159 165.64 153.45C164.23 149.742 161.679 146.577 158.356 144.411Z" fill="#FFB6B6"/>
<path d="M93.823 279.941L104.668 328.979L183.974 336.155L191.262 293.456L93.823 279.941Z" fill="#FFB6B6"/>
<path d="M214.963 405.693C214.927 406.396 214.884 407.092 214.833 407.795C214.072 417.956 213.203 429.675 212.261 442.517C210.776 462.896 209.117 486.102 207.443 510.381H41.0997L73.3603 413.378C73.3603 413.378 86.3864 406.204 79.7547 394.151C73.123 382.099 86.1718 391.703 86.2932 374.491C86.4146 357.279 98.1076 338.967 98.1076 338.967L100.027 312.905L101.121 312.927L187.687 314.369L189.267 314.398L191.925 336.771C208.069 355.988 216.305 380.627 214.963 405.693Z" fill="#2F2E41"/>
<path d="M143.32 120.645L182.794 118.611L201.129 147.593C201.129 147.593 235.626 153.362 233.235 194.028C230.843 234.694 191.262 270.379 191.262 270.379L192.954 264.576L190.015 272.975L190.392 277.692L194.401 282.687L194.814 287.852L191.262 296.025C191.724 296.766 191.969 297.621 191.969 298.494C191.97 299.367 191.726 300.223 191.265 300.964C190.804 301.705 190.145 302.302 189.362 302.687C188.579 303.073 187.704 303.231 186.836 303.144L129.799 297.426C128.5 293.852 127.458 289.576 122.253 296.694L116.88 296.174L94.5444 294.009L93.2298 289.218C92.4828 286.496 92.3664 283.639 92.8894 280.865C93.4124 278.091 94.5611 275.473 96.248 273.21C94.3079 267.133 94.8161 260.538 97.6643 254.829L97.7711 254.615L100.143 252.638C100.143 252.638 74.1934 213.637 103.983 184.263L115.939 163.93L129.317 147.602L143.32 120.645Z" fill="#00B0FF"/>
<path d="M153.145 103.537C173.818 103.537 190.577 86.7717 190.577 66.0906C190.577 45.4095 173.818 28.6442 153.145 28.6442C132.471 28.6442 115.712 45.4095 115.712 66.0906C115.712 86.7717 132.471 103.537 153.145 103.537Z" fill="#FFB6B6"/>
<path d="M181.575 120.035C178.526 117.487 176.405 114.003 175.539 110.125C174.847 114.834 175.028 119.63 176.073 124.273C174.046 125.798 172.08 127.246 170.22 128.558C168.813 124.936 166.882 121.541 164.49 118.48C164.261 123.298 164.048 128.131 163.835 132.949C161.46 134.558 158.957 135.971 156.351 137.172L157.464 135.845C165.45 124.075 144.784 102.41 152.77 90.6552C155.01 87.3619 144.891 61.3365 137.179 60.1625C130.32 59.1258 130.61 61.1078 123.965 62.5562C123.275 59.6772 122.204 56.9032 120.78 54.3079C121.159 57.1999 121.071 60.134 120.521 62.9983C118.159 63.0898 116.3 61.584 113.784 61.1992C97.7361 58.7446 99.3668 41.3791 103.832 35.8751C108.313 30.3864 123.188 28.7398 130.046 26.9559C130.671 26.3461 132.088 26.7273 132.713 26.1479C145.857 14.1147 163.435 12.1219 179.254 17.4553C196.124 23.1429 206.642 34.1511 212.041 51.1214L213.589 64.702C214.978 69.0687 213.231 89.3861 212.041 93.8112C207.415 111.012 197.564 102.425 181.575 120.035Z" fill="#2F2E41"/>
<path d="M236.154 297.446L234.681 182.631C234.604 177.766 232.618 173.127 229.153 169.715C225.687 166.302 221.019 164.39 216.156 164.39H216.156C213.64 164.39 211.151 164.902 208.84 165.896C206.528 166.89 204.444 168.344 202.713 170.17C200.982 171.996 199.64 174.156 198.771 176.518C197.901 178.879 197.522 181.393 197.655 183.906L202.841 303.125L202.939 375.699C199.883 376.996 197.3 379.202 195.541 382.019C193.781 384.835 192.931 388.125 193.106 391.442C193.281 394.758 194.473 397.94 196.518 400.556C198.564 403.171 201.365 405.094 204.541 406.061C207.717 407.029 211.113 406.995 214.269 405.964C217.425 404.933 220.187 402.956 222.181 400.3C224.174 397.644 225.301 394.438 225.41 391.119C225.519 387.8 224.604 384.528 222.789 381.747L236.154 297.446Z" fill="#FFB6B6"/>
<path d="M429.346 445.991C429.346 445.991 427.068 486.997 426.02 510.384H347.556C345.941 489.101 345.397 473.465 345.397 473.465L341.104 510.384H261.792L256.875 442.008L280.637 383.085C280.637 383.085 409.406 374.151 421.351 385.485C433.288 396.81 429.346 445.991 429.346 445.991Z" fill="#2F2E41"/>
<path d="M359.961 101.04C383.632 101.04 402.821 81.8439 402.821 58.1643C402.821 34.4848 383.632 15.2887 359.961 15.2887C336.291 15.2887 317.102 34.4848 317.102 58.1643C317.102 81.8439 336.291 101.04 359.961 101.04Z" fill="#FFB6B6"/>
<path d="M409.918 44.2324C405.516 46.2405 402.664 60.7842 399.204 57.4031C395.743 54.022 395.974 49.622 391.309 48.3742C387.542 47.3622 383.488 48.5188 380.052 50.3428C379.438 50.6646 378.844 51.0146 378.264 51.3626C377.881 51.1068 377.5 50.8662 377.091 50.6441C374.018 48.9986 370.43 48.595 367.068 49.5163C369.725 50.4065 372.035 52.1096 373.671 54.3849C372.521 55.1559 371.356 55.9288 370.165 56.6137C360.211 62.3602 346.046 49.8647 335.569 45.1704C342.132 57.4908 338.9 62.5932 333.202 75.3351L333.005 76.0607C333.329 72.8672 323.45 70.4873 324.023 74.9827C324.43 78.1745 327.191 85.269 328.737 88.0871C317.721 75.3446 310.193 59.7514 311.782 43.6656C312.128 40.2865 312.023 36.7212 313.766 33.7883C315.51 30.8706 319.146 28.8231 322.363 29.9357C322.09 24.8058 323.212 19.6979 325.61 15.155C328.007 10.6121 331.591 6.80402 335.979 4.13566C340.367 1.4673 345.396 0.0383608 350.531 0.000761634C355.666 -0.0368375 360.715 1.31831 365.142 3.92214C369.255 6.33667 372.689 9.75158 376.459 12.6972C380.229 15.6428 384.575 18.2104 389.356 18.4536C392.389 18.5999 395.689 17.8593 398.294 19.4306C401.312 21.2538 401.829 25.0711 402.282 28.7443C399.59 29.0098 397.038 30.0722 394.953 31.7956C397.738 31.5114 400.542 32.1131 402.966 33.515C403.012 33.5358 403.056 33.5608 403.097 33.5896C404.693 39.6602 404.529 41.006 409.918 44.2324Z" fill="#2F2E41"/>
<path d="M261.982 403.829C298.481 361.09 286.153 306.731 271.667 251.858L274.423 170.793C274.558 166.817 275.648 162.931 277.6 159.465C279.552 155.998 282.31 153.053 285.64 150.876L322.9 126.525L337.402 105.549L377.378 109.548L399.546 133.001L424.083 151.74C430.244 156.445 434.932 162.815 437.594 170.097C440.256 177.38 440.781 185.272 439.108 192.843L415.626 299.075C415.626 299.075 425.447 354.146 419.455 360.228C413.462 366.31 398.021 360.231 410.266 367.059C424.961 375.253 438.322 373.741 430.886 381.18C423.449 388.619 432.861 398.962 432.861 398.962L261.982 403.829Z" fill="#F50057"/>
<path d="M277.587 465.942L283.672 422.575L259.393 415.642L254.591 461.721C252.581 463.564 251.126 465.931 250.388 468.556C249.649 471.181 249.658 473.96 250.412 476.581C251.166 479.202 252.636 481.56 254.657 483.391C256.677 485.222 259.168 486.452 261.849 486.944C264.531 487.437 267.296 487.171 269.835 486.177C272.373 485.183 274.585 483.501 276.22 481.319C277.855 479.136 278.849 476.541 279.091 473.825C279.332 471.109 278.812 468.379 277.587 465.942Z" fill="#FFB6B6"/>
<path d="M323.811 134.343C323.811 134.343 254.702 156.844 253.054 173.308C251.406 189.771 251.952 199.85 244.659 265.731L245.043 443.197C245.043 443.197 291.376 453.12 286.624 442.51C281.873 431.9 283.531 426.908 283.531 426.908C283.531 426.908 293.465 422.986 290.978 410.528C288.491 398.07 300.962 336.331 300.962 336.331L308.832 225.605L323.811 134.343Z" fill="#F50057"/>
<path d="M409.023 463.645L405.785 419.974L430.465 414.642L432.246 460.937C434.131 462.907 435.429 465.365 435.994 468.032C436.559 470.7 436.369 473.473 435.445 476.039C434.521 478.605 432.9 480.862 430.765 482.556C428.629 484.251 426.063 485.316 423.355 485.632C420.647 485.948 417.905 485.502 415.437 484.344C412.969 483.186 410.872 481.363 409.383 479.078C407.894 476.794 407.072 474.14 407.008 471.413C406.944 468.687 407.642 465.997 409.023 463.645H409.023Z" fill="#FFB6B6"/>
<path d="M384.565 129.733C384.565 129.733 452.056 156.705 452.625 173.241C453.193 189.777 451.99 199.799 454.963 266.016L442.984 443.077C442.984 443.077 396.101 449.95 401.536 439.673C406.971 429.396 405.643 424.306 405.643 424.306C405.643 424.306 395.986 419.743 399.282 407.474C402.577 395.205 394.168 332.783 394.168 332.783L393.548 221.779L384.565 129.733Z" fill="#F50057"/>
</svg>
