<svg width="629" height="593" viewBox="0 0 629 593" fill="none" xmlns="http://www.w3.org/2000/svg">
<path d="M78.797 149.864C78.1741 153.646 78.388 157.518 79.4237 161.209C80.4593 164.899 82.2915 168.317 84.7912 171.223C87.2908 174.128 90.3971 176.451 93.8913 178.026C97.3855 179.601 101.183 180.391 105.015 180.34L169.238 367.212L210.217 339.049L131.11 151.886C130.598 145.453 127.743 139.432 123.088 134.963C118.433 130.494 112.3 127.888 105.852 127.639C99.4033 127.39 93.0876 129.515 88.1013 133.611C83.115 137.707 79.8045 143.49 78.797 149.864Z" fill="#FFB6B6"/>
<path d="M414.001 213.092C385.481 245.54 315.157 302.723 257.224 342.099C244.701 350.61 232.751 358.276 221.931 364.692C214.622 369.024 207.825 372.774 201.707 375.833C197.601 377.879 193.116 379.054 188.534 379.286C183.952 379.518 179.372 378.802 175.08 377.182C170.788 375.561 166.877 373.072 163.591 369.87C160.306 366.668 157.717 362.822 155.987 358.573L115.873 261.526L129.752 252.325L163.974 229.625L171.746 224.483L203.838 300.914L237.679 273.751L258.688 256.884L354.461 180.024L362.722 177.572L381.994 196.379L395.623 209.687L408.443 211.913C410.359 212.247 412.216 212.639 414.001 213.092Z" fill="#00BFA6"/>
<path d="M461.888 317.126L458.294 564.011L167.902 555.679L214.277 453.311C213.944 450.026 234.631 426.969 234.512 423.553C234.155 413.542 241.631 404.27 242.845 393.795C245.321 372.191 231.144 290.606 237.679 273.751C240.463 266.224 244.029 259.011 248.32 252.23C252.034 246.611 255.843 242.826 259.486 241.457L270.222 216.437L279.745 202.153L354.462 180.024L362.722 177.572L381.994 196.38L395.623 209.687L408.443 211.913C410.359 212.247 412.216 212.639 414.002 213.092C422.601 215.075 430.616 219.045 437.403 224.685C459.782 243.695 462.388 279.452 461.888 317.126Z" fill="#00BFA6"/>
<path d="M628.659 562.157C620.469 572.43 611.792 582.278 602.626 591.701L571.225 591.725L402.354 591.916L371.953 591.951L351.741 591.975L321.674 591.999L298.546 592.023L255.825 592.07L230.626 592.106L177.561 592.154L152.231 592.189L82.0373 592.261L37.9476 592.308L26.1157 592.32C23.4851 589.63 20.8942 586.9 18.3429 584.131C11.9866 577.239 5.87227 570.133 0 562.812L24.4969 562.788L41.1853 562.776L79.8232 562.729L154.385 562.657L179.584 562.634L189.774 562.622H189.809L197.808 562.61L201.391 562.598L210.569 562.586H214.449L241.66 562.562L300.355 562.491L326.185 562.467L350.92 562.443L374.107 562.419L407.377 562.384L585.069 562.205L628.659 562.157Z" fill="#CCCCCC"/>
<path d="M226.895 191.454L226.83 191.46C223.396 191.78 219.976 190.722 217.322 188.52C214.668 186.318 212.997 183.151 212.678 179.717L205.908 107.465C204.683 94.5217 206.073 81.4639 209.995 69.0683C217.683 44.8755 234.411 24.5827 256.691 12.4189C268.196 6.15477 280.85 2.28489 293.89 1.0425C347.24 -4.04019 366.737 7.071 399.692 88.4378C432.647 169.805 406.472 160.8 406.472 160.8C406.637 162.541 406.449 164.298 405.921 165.965C404.884 169.218 402.629 171.945 399.629 173.575C398.09 174.41 396.399 174.927 394.655 175.095C331.584 191.127 267.943 208.002 226.884 191.455L226.895 191.454Z" fill="#2F2E41"/>
<path d="M344.287 69.5038C352.204 81.218 356.472 95.0156 356.553 109.154C356.633 123.293 352.521 137.138 344.738 148.941C336.954 160.744 325.847 169.976 312.819 175.47C299.792 180.965 285.428 182.476 271.543 179.812C262.351 178.078 253.595 174.538 245.781 169.396C237.968 164.254 231.252 157.613 226.023 149.857C218.123 138.147 213.866 124.359 213.79 110.233C213.715 96.1075 217.823 82.2753 225.597 70.4809C233.372 58.6866 244.464 49.4581 257.476 43.9591C270.488 38.4601 284.837 36.9368 298.713 39.5812C307.912 41.3045 316.678 44.8371 324.501 49.9741C332.324 55.1111 339.05 61.7502 344.287 69.5065L344.287 69.5038Z" fill="#FFB6B6"/>
<path d="M183.543 115.492C182.575 105.255 183.674 94.9282 186.776 85.1247C187.495 61.143 194.453 39.4213 223.703 40.333C232.745 35.4144 242.683 32.3647 252.928 31.3654L267.382 29.938C267.544 29.9219 267.707 29.9062 267.869 29.8911C277.883 28.9591 287.983 30.0087 297.592 32.9799C307.2 35.9511 316.13 40.7858 323.87 47.2079C331.61 53.63 338.009 61.5138 342.703 70.409C347.396 79.3043 350.291 89.0369 351.223 99.0512L351.359 100.498L320.778 103.488L307.617 75.3228L308.266 104.717L292.472 106.267L285.834 92.0573L286.159 106.878C262.707 127.532 227.147 128.614 183.693 116.941L183.543 115.492Z" fill="#2F2E41"/>
<path d="M281.363 184.054C281.103 186.435 281.516 188.841 282.555 190.998C283.079 192.103 283.755 193.129 284.564 194.047C285.255 194.828 286.037 195.525 286.893 196.123C289.426 197.886 292.505 198.69 295.577 198.389C295.769 198.369 295.959 198.345 296.15 198.319C296.341 198.292 296.531 198.26 296.721 198.225C296.913 198.19 297.103 198.151 297.292 198.106C297.481 198.061 297.671 198.013 297.861 197.961L308.534 194.97L320.496 161.618L323.238 190.884L371.771 177.372L360.135 53.1791L277.414 61.33L279.683 63.5145C287.221 70.8513 292.588 80.1256 295.195 90.3165C297.782 100.643 298.58 111.337 297.555 121.934C296.598 132.649 294.614 143.247 291.631 153.583C289.034 162.735 285.913 171.73 282.281 180.523C281.811 181.651 281.503 182.84 281.363 184.054Z" fill="#2F2E41"/>
<path d="M292.394 575.616C290.971 575.615 289.567 575.298 288.283 574.687L59.1215 580.533C57.363 579.7 55.8985 578.354 54.9215 576.671C53.9444 574.988 53.5008 573.049 53.6491 571.109C53.7974 569.169 54.5307 567.319 55.7522 565.804C56.9736 564.29 58.6258 563.181 60.4904 562.625L210.414 517.922C211.967 517.46 213.611 517.397 215.194 517.74L447.101 546.005C449.153 546.449 451.004 547.552 452.37 549.146C453.737 550.74 454.544 552.737 454.669 554.833C454.794 556.929 454.23 559.008 453.062 560.753C451.895 562.498 450.188 563.813 448.203 564.497L295.534 575.087C294.524 575.437 293.462 575.615 292.394 575.616Z" fill="#3F3D56"/>
<path d="M300.822 559.664C299.787 559.664 298.769 559.399 297.866 558.894L111.754 567.589C110.697 566.997 109.843 566.099 109.303 565.014C108.764 563.929 108.563 562.707 108.728 561.507C108.893 560.306 109.415 559.183 110.227 558.284C111.04 557.385 112.104 556.751 113.281 556.465L180.658 540.112C181.71 539.857 182.81 539.89 183.845 540.205L356.863 539.997C358.095 540.374 359.173 541.136 359.941 542.17C360.709 543.204 361.126 544.457 361.13 545.745C361.135 547.033 360.727 548.289 359.966 549.329C359.206 550.368 358.132 551.137 356.903 551.523L302.622 559.389C302.039 559.571 301.432 559.664 300.822 559.664Z" fill="#2F2E41"/>
<path d="M281.232 549.744C284.453 551.821 288.091 553.166 291.889 553.685C295.686 554.204 299.551 553.884 303.212 552.748C306.872 551.611 310.239 549.686 313.075 547.108C315.911 544.529 318.147 541.361 319.626 537.824L516.62 553.299L507.097 504.495L303.911 502.559C297.806 500.469 291.146 500.69 285.194 503.182C279.241 505.674 274.409 510.262 271.614 516.078C268.818 521.894 268.253 528.534 270.026 534.739C271.799 540.944 275.786 546.282 281.232 549.744Z" fill="#FFB6B6"/>
<path d="M397.587 231.911C397.587 231.911 427.345 208.104 463.055 250.956C487.137 279.855 533.593 454.555 537.444 526.948C537.688 531.529 536.983 536.11 535.373 540.406C533.763 544.701 531.283 548.618 528.088 551.91C524.894 555.203 521.054 557.8 516.809 559.538C512.564 561.277 508.006 562.121 503.42 562.016L398.42 560.188L386.679 494.185L469.577 495.166L397.587 231.911Z" fill="#00BFA6"/>
<path d="M279.648 575.643C276.046 575.64 272.481 574.918 269.161 573.52L56.7569 578.366C51.1512 576.028 46.4978 571.868 43.5492 566.558C40.6006 561.248 39.529 555.099 40.5077 549.105L32.6152 362.567C33.6619 355.904 37.1689 349.876 42.4436 345.673C47.7183 341.469 54.3773 339.397 61.1058 339.864L258.299 348.042C262.084 348.29 265.775 349.332 269.132 351.098C272.489 352.864 275.437 355.316 277.785 358.296C280.133 361.275 281.829 364.714 282.763 368.391C283.696 372.068 283.846 375.899 283.203 379.638L306.307 553.15C305.22 559.437 301.951 565.139 297.075 569.253C292.199 573.367 286.028 575.63 279.648 575.643Z" fill="#3F3D56"/>
<path d="M118.361 20.2828L29.717 20.0328C27.3409 20.03 25.0606 20.9694 23.376 22.6451C21.6914 24.3208 20.7399 26.596 20.7301 28.9721L20.4087 146.35C20.4037 148.724 21.3411 151.002 23.0151 152.685C24.689 154.368 26.9625 155.318 29.3362 155.325L78.5085 155.468L117.992 155.575C120.367 155.58 122.647 154.64 124.33 152.964C126.013 151.287 126.962 149.011 126.967 146.636L126.99 139.696L127.3 29.2697C127.305 26.893 126.366 24.6116 124.69 22.9265C123.014 21.2414 120.737 20.2906 118.361 20.2828Z" fill="#E6E6E6"/>
<path d="M112.111 27.2938L35.9304 27.0796C33.7059 27.0768 31.5709 27.956 29.9935 29.5245C28.416 31.0931 27.5247 33.223 27.5149 35.4476L27.3006 110.914C27.2857 120.825 31.2022 130.337 38.1912 137.364C45.1802 144.391 54.6709 148.359 64.5816 148.398L79.056 148.433L111.778 148.529C114.003 148.533 116.139 147.655 117.717 146.086C119.295 144.517 120.186 142.386 120.194 140.161L120.217 132.566L120.479 35.7095C120.484 33.4843 119.606 31.3481 118.037 29.7702C116.468 28.1923 114.336 27.3016 112.111 27.2938Z" fill="white"/>
<path d="M103.553 78.8587H44.1554C43.6872 78.8587 43.2236 78.9509 42.7911 79.1301C42.3585 79.3092 41.9655 79.5718 41.6345 79.9029C41.3034 80.2339 41.0408 80.6269 40.8617 81.0594C40.6825 81.492 40.5903 81.9556 40.5903 82.4237C40.5903 82.8919 40.6825 83.3555 40.8617 83.788C41.0408 84.2205 41.3034 84.6136 41.6345 84.9446C41.9655 85.2756 42.3585 85.5382 42.7911 85.7174C43.2236 85.8966 43.6872 85.9888 44.1554 85.9888H103.553C104.498 85.9888 105.405 85.6132 106.073 84.9446C106.742 84.276 107.118 83.3692 107.118 82.4237C107.118 81.4782 106.742 80.5714 106.073 79.9029C105.405 79.2343 104.498 78.8587 103.553 78.8587Z" fill="#00BFA6"/>
<path d="M57.2132 59.3137H44.1554C43.2098 59.3137 42.3031 59.6893 41.6345 60.3578C40.9659 61.0264 40.5903 61.9332 40.5903 62.8787C40.5903 63.8242 40.9659 64.731 41.6345 65.3995C42.3031 66.0681 43.2098 66.4437 44.1554 66.4437H57.2132C58.1587 66.4437 59.0655 66.0681 59.7341 65.3995C60.4027 64.731 60.7782 63.8242 60.7782 62.8787C60.7782 61.9332 60.4027 61.0264 59.7341 60.3578C59.0655 59.6893 58.1587 59.3137 57.2132 59.3137Z" fill="#00BFA6"/>
<path d="M103.553 110.2H44.1554C43.2098 110.2 42.3031 110.576 41.6345 111.244C40.9659 111.913 40.5903 112.819 40.5903 113.765C40.5903 114.71 40.9659 115.617 41.6345 116.286C42.3031 116.954 43.2098 117.33 44.1554 117.33H103.553C104.498 117.33 105.405 116.954 106.073 116.286C106.742 115.617 107.118 114.71 107.118 113.765C107.118 112.819 106.742 111.913 106.073 111.244C105.405 110.576 104.498 110.2 103.553 110.2Z" fill="#00BFA6"/>
<path d="M103.553 94.5353H44.1555C43.2116 94.5353 42.3063 94.9103 41.6388 95.5777C40.9714 96.2452 40.5964 97.1504 40.5964 98.0943C40.5964 99.0383 40.9714 99.9435 41.6388 100.611C42.3063 101.278 43.2116 101.653 44.1555 101.653H103.553C104.497 101.653 105.402 101.278 106.069 100.611C106.737 99.9435 107.112 99.0383 107.112 98.0943C107.112 97.1504 106.737 96.2452 106.069 95.5777C105.402 94.9103 104.497 94.5353 103.553 94.5353Z" fill="#00BFA6"/>
<path d="M92.0112 71.9196C87.8403 71.9196 83.7631 70.6828 80.2951 68.3656C76.8272 66.0484 74.1242 62.7549 72.5281 58.9015C70.932 55.0481 70.5144 50.808 71.3281 46.7172C72.1418 42.6265 74.1502 38.8689 77.0995 35.9197C80.0487 32.9704 83.8063 30.962 87.897 30.1483C91.9877 29.3346 96.2279 29.7522 100.081 31.3483C103.935 32.9444 107.228 35.6474 109.545 39.1153C111.863 42.5833 113.099 46.6605 113.099 50.8313C113.093 56.4224 110.869 61.7825 106.916 65.736C102.962 69.6894 97.6022 71.9133 92.0112 71.9196ZM92.0112 31.2086C88.1301 31.2085 84.3363 32.3594 81.1093 34.5156C77.8823 36.6717 75.3672 39.7364 73.882 43.322C72.3968 46.9076 72.0082 50.8531 72.7653 54.6595C73.5225 58.466 75.3913 61.9624 78.1356 64.7067C80.8799 67.451 84.3764 69.32 88.1828 70.0771C91.9893 70.8343 95.9348 70.4457 99.5204 68.9605C103.106 67.4753 106.171 64.9602 108.327 61.7332C110.483 58.5063 111.634 54.7124 111.634 50.8314C111.628 45.6289 109.559 40.6412 105.88 36.9625C102.201 33.2838 97.2136 31.2145 92.0112 31.2086Z" fill="#00BFA6"/>
<path d="M100.868 58.9996C99.4109 51.4792 96.3771 44.3529 91.966 38.0902C91.8665 37.9278 91.727 37.7937 91.5609 37.7007C91.3947 37.6076 91.2074 37.5588 91.017 37.5588C90.8266 37.5588 90.6393 37.6076 90.4732 37.7007C90.307 37.7937 90.1675 37.9278 90.0679 38.0902C86.2263 44.8096 83.7707 52.231 82.8464 59.9157C82.6755 61.3167 84.8753 61.3044 85.0446 59.9157C85.3535 57.4253 85.835 54.9593 86.4857 52.5357C86.5699 52.5191 86.6522 52.4939 86.7312 52.4605C89.6543 50.9929 92.9564 50.4552 96.1941 50.9195C96.2223 50.9237 96.2495 50.9176 96.2776 50.9203C97.3467 53.7324 98.1732 56.6309 98.7478 59.584C99.0159 60.9715 101.135 60.3841 100.868 58.9996ZM87.2769 49.8398C88.2859 46.7096 89.5704 43.6751 91.1154 40.7718C92.7507 43.2702 94.1706 45.9031 95.3599 48.642C92.61 48.4352 89.8486 48.8444 87.2769 49.8398Z" fill="#00BFA6"/>
</svg>
